<svg xmlns="http://www.w3.org/2000/svg" width="5184" viewBox="0 0 5184 2592" height="2592" version="1.0"><defs><clipPath id="a"><path d="M 2931 46.175781 L 3439 46.175781 L 3439 789 L 2931 789 Z M 2931 46.175781"/></clipPath><clipPath id="b"><path d="M 3407.851562 46.863281 C 3407.851562 46.863281 3399.328125 108.089844 3333.730469 162.457031 C 3268.128906 216.820312 3105.019531 271.746094 2996.601562 405.984375 C 2888.183594 540.21875 2940.875 672.066406 2968.679688 711.457031 C 2984.640625 734.070312 3008.828125 739.425781 3026.5625 739.851562 C 3019.996094 708.992188 3015.839844 674.773438 3017.613281 639.164062 C 3031.871094 496.425781 3143.738281 406.207031 3161.609375 389.414062 C 3171.347656 380.742188 3189.515625 366.28125 3211.554688 350.261719 C 3234.167969 334.523438 3258.003906 316.671875 3279.84375 295.882812 C 3323.6875 256.074219 3358.878906 215.9375 3358.777344 215.9375 C 3358.863281 215.9375 3328.886719 260.070312 3289.078125 305.089844 C 3270.007812 327.820312 3245.8125 350.246094 3225.222656 367.457031 C 3204.847656 385.292969 3188.253906 400.5625 3178.914062 408.898438 C 3169.789062 417.382812 3140.382812 442.933594 3112.253906 484.1875 C 3098.054688 505.148438 3085.113281 528.679688 3072.601562 557.363281 C 3060.445312 582.140625 3054.492188 611.199219 3054.210938 640.496094 C 3053.761719 691.628906 3067.621094 741.605469 3081.972656 780.320312 C 3101.230469 790.289062 3131.523438 793.550781 3178.914062 775.878906 C 3216.707031 754.941406 3249.195312 731.011719 3277.195312 704.941406 L 3232.429688 645.996094 L 3316.117188 663.992188 C 3344.066406 630.726562 3366.050781 594.945312 3383.246094 558 L 3301.917969 533.480469 L 3403.667969 507.0625 C 3421.464844 455.394531 3431.109375 402.621094 3435.5 352.109375 L 3354.691406 366.152344 L 3353.867188 366.488281 L 3354.351562 366.203125 L 3345.542969 367.738281 L 3438.089844 306.308594 C 3442.203125 162.230469 3407.851562 46.863281 3407.851562 46.863281"/></clipPath><clipPath id="c"><path d="M 2931 178 L 3312 178 L 3312 735 L 2931 735 Z M 2931 178"/></clipPath><clipPath id="d"><path d="M 2996.628906 405.996094 C 3094.140625 285.285156 3235.898438 228.644531 3311.136719 178.945312 C 3246.25 238.121094 3097.640625 304.925781 3007.964844 443.222656 C 2927.011719 568.074219 2966.871094 683.480469 2999.242188 734.84375 C 2988.214844 730.738281 2977.292969 723.59375 2968.710938 711.472656 C 2940.90625 672.082031 2888.226562 540.21875 2996.628906 405.996094"/></clipPath></defs><g fill="#6B3E0A"><g><g><path d="M 66.578125 -54.875 C 79.171875 -89.070312 87.863281 -126.113281 92.65625 -166 C 97.457031 -205.882812 101.0625 -245.921875 103.46875 -286.109375 C 103.46875 -292.109375 103.164062 -297.804688 102.5625 -303.203125 C 102.5625 -307.992188 102.5625 -312.492188 102.5625 -316.703125 C 100.757812 -272.316406 97.160156 -227.929688 91.765625 -183.546875 C 86.972656 -137.953125 76.78125 -95.960938 61.1875 -57.578125 C 58.78125 -62.378906 56.976562 -66.578125 55.78125 -70.171875 C 54.582031 -73.773438 53.984375 -77.972656 53.984375 -82.765625 C 53.984375 -97.160156 56.378906 -112.15625 61.171875 -127.75 C 65.972656 -143.351562 68.972656 -159.550781 70.171875 -176.34375 L 82.765625 -181.734375 C 82.765625 -211.128906 83.960938 -240.367188 86.359375 -269.453125 C 88.765625 -298.546875 89.96875 -327.789062 89.96875 -357.1875 C 89.96875 -372.175781 89.515625 -386.867188 88.609375 -401.265625 C 87.710938 -415.660156 85.765625 -430.65625 82.765625 -446.25 L 77.375 -446.25 C 80.96875 -403.664062 82.765625 -362.878906 82.765625 -323.890625 C 82.765625 -304.097656 82.164062 -285.207031 80.96875 -267.21875 C 79.769531 -250.414062 77.671875 -233.316406 74.671875 -215.921875 C 76.472656 -229.117188 77.675781 -241.71875 78.28125 -253.71875 C 79.476562 -267.507812 80.078125 -282.203125 80.078125 -297.796875 C 80.078125 -346.378906 78.125 -395.707031 74.21875 -445.78125 C 70.320312 -495.863281 66.875 -547.300781 63.875 -600.09375 L 63.875 -625.28125 C 65.675781 -632.476562 66.726562 -640.273438 67.03125 -648.671875 C 67.332031 -657.066406 68.082031 -665.160156 69.28125 -672.953125 C 70.476562 -680.753906 72.722656 -687.203125 76.015625 -692.296875 C 79.316406 -697.398438 84.867188 -699.953125 92.671875 -699.953125 L 107.96875 -695.453125 L 113.359375 -684.65625 L 121.453125 -684.65625 C 123.859375 -688.257812 126.5625 -690.0625 129.5625 -690.0625 C 133.15625 -690.0625 136.75 -688.707031 140.34375 -686 C 143.945312 -683.300781 148.148438 -681.953125 152.953125 -681.953125 C 161.941406 -681.953125 168.234375 -675.804688 171.828125 -663.515625 C 175.429688 -651.222656 177.832031 -635.925781 179.03125 -617.625 C 180.238281 -599.332031 180.84375 -579.238281 180.84375 -557.34375 C 180.84375 -535.457031 182.039062 -514.921875 184.4375 -495.734375 C 186.238281 -478.335938 187.890625 -460.789062 189.390625 -443.09375 C 190.890625 -425.40625 191.640625 -407.566406 191.640625 -389.578125 C 191.640625 -371.578125 191.035156 -350.582031 189.828125 -326.59375 C 188.628906 -302.601562 186.976562 -277.859375 184.875 -252.359375 C 182.78125 -226.867188 180.234375 -201.523438 177.234375 -176.328125 C 174.242188 -151.140625 170.945312 -128.648438 167.34375 -108.859375 C 163.75 -89.066406 159.550781 -73.019531 154.75 -60.71875 C 149.945312 -48.425781 145.148438 -42.28125 140.359375 -42.28125 C 139.148438 -42.28125 137.347656 -42.878906 134.953125 -44.078125 C 139.148438 -63.273438 143.195312 -82.46875 147.09375 -101.65625 C 151 -120.851562 154.453125 -140.953125 157.453125 -161.953125 C 153.253906 -142.753906 148.90625 -123.109375 144.40625 -103.015625 C 139.90625 -82.921875 134.957031 -64.175781 129.5625 -46.78125 C 127.15625 -49.1875 124.15625 -50.390625 120.5625 -50.390625 C 119.363281 -50.390625 118.015625 -48.890625 116.515625 -45.890625 C 115.015625 -42.890625 113.0625 -39.4375 110.65625 -35.53125 C 108.257812 -31.632812 105.257812 -28.1875 101.65625 -25.1875 C 98.0625 -22.1875 94.164062 -20.6875 89.96875 -20.6875 C 85.769531 -20.6875 82.46875 -21.585938 80.0625 -23.390625 C 77.664062 -25.191406 75.71875 -27.441406 74.21875 -30.140625 C 72.71875 -32.835938 71.21875 -35.6875 69.71875 -38.6875 C 68.226562 -41.6875 66.28125 -44.382812 63.875 -46.78125 Z M 170.9375 -314 C 167.34375 -302 164.796875 -291.050781 163.296875 -281.15625 C 161.796875 -271.257812 160.894531 -261.8125 160.59375 -252.8125 C 160.289062 -243.820312 160.140625 -234.523438 160.140625 -224.921875 C 160.140625 -216.523438 159.84375 -207.226562 159.25 -197.03125 C 161.644531 -217.425781 163.742188 -236.019531 165.546875 -252.8125 C 167.941406 -270.8125 169.738281 -291.207031 170.9375 -314 Z M 74.671875 -212.328125 C 74.671875 -213.523438 74.671875 -214.722656 74.671875 -215.921875 C 74.671875 -214.722656 74.671875 -213.523438 74.671875 -212.328125 Z M 74.671875 -212.328125" transform="translate(999.905 1385.383)"/></g></g></g><g fill="#6B3E0A"><g><g><path d="M 53.984375 -57.578125 C 53.984375 -60.578125 54.878906 -64.175781 56.671875 -68.375 C 58.472656 -72.570312 59.375 -77.070312 59.375 -81.875 C 61.175781 -96.269531 62.375 -106.613281 62.96875 -112.90625 C 63.570312 -119.207031 63.875 -124.757812 63.875 -129.5625 C 63.875 -154.75 63.125 -181.882812 61.625 -210.96875 C 60.125 -240.0625 58.476562 -268.109375 56.6875 -295.109375 C 56.6875 -303.503906 56.535156 -313.398438 56.234375 -324.796875 C 55.929688 -336.191406 55.179688 -345.1875 53.984375 -351.78125 C 55.785156 -372.78125 57.285156 -393.472656 58.484375 -413.859375 C 59.679688 -434.253906 60.28125 -454.945312 60.28125 -475.9375 L 60.28125 -498.4375 C 60.28125 -506.226562 59.976562 -514.019531 59.375 -521.8125 C 61.175781 -520.007812 62.976562 -519.109375 64.78125 -519.109375 C 67.175781 -519.109375 69.722656 -520.007812 72.421875 -521.8125 C 75.117188 -523.613281 77.671875 -524.515625 80.078125 -524.515625 C 84.273438 -524.515625 87.722656 -520.015625 90.421875 -511.015625 C 93.117188 -502.023438 94.46875 -482.238281 94.46875 -451.65625 L 102.5625 -451.65625 C 105.5625 -485.238281 110.207031 -511.925781 116.5 -531.71875 C 122.800781 -551.507812 129.253906 -561.40625 135.859375 -561.40625 C 138.859375 -561.40625 143.65625 -554.957031 150.25 -542.0625 C 156.84375 -529.164062 160.140625 -508.925781 160.140625 -481.34375 L 170.046875 -497.53125 C 176.640625 -505.332031 183.984375 -513.425781 192.078125 -521.8125 C 200.179688 -530.207031 209.332031 -537.703125 219.53125 -544.296875 C 229.726562 -550.898438 241.125 -556.453125 253.71875 -560.953125 C 266.3125 -565.453125 280.707031 -567.703125 296.90625 -567.703125 C 328.09375 -567.703125 355.234375 -560.648438 378.328125 -546.546875 C 401.421875 -532.453125 420.765625 -514.160156 436.359375 -491.671875 C 451.953125 -469.191406 464.695312 -443.707031 474.59375 -415.21875 C 484.488281 -386.726562 492.132812 -357.9375 497.53125 -328.84375 C 502.9375 -299.75 506.535156 -271.707031 508.328125 -244.71875 C 510.128906 -217.726562 511.03125 -194.632812 511.03125 -175.4375 C 511.03125 -158.039062 509.976562 -147.691406 507.875 -144.390625 C 505.78125 -141.097656 502.035156 -139.148438 496.640625 -138.546875 C 495.441406 -184.734375 492.441406 -231.816406 487.640625 -279.796875 C 482.835938 -327.785156 471.441406 -374.273438 453.453125 -419.265625 C 469.648438 -371.878906 479.992188 -325.242188 484.484375 -279.359375 C 488.984375 -233.472656 491.234375 -187.4375 491.234375 -141.25 C 487.640625 -143.050781 484.34375 -143.953125 481.34375 -143.953125 C 478.945312 -143.953125 476.847656 -143.050781 475.046875 -141.25 C 475.046875 -136.457031 475.34375 -131.359375 475.9375 -125.953125 C 476.539062 -121.160156 476.992188 -116.363281 477.296875 -111.5625 C 477.597656 -106.757812 477.75 -102.257812 477.75 -98.0625 C 474.144531 -84.269531 470.539062 -74.375 466.9375 -68.375 C 463.34375 -62.375 460.046875 -59.375 457.046875 -59.375 C 453.453125 -59.375 450.453125 -61.023438 448.046875 -64.328125 C 445.648438 -67.628906 443.398438 -71.675781 441.296875 -76.46875 C 439.203125 -81.269531 437.101562 -86.519531 435 -92.21875 C 432.90625 -97.914062 430.054688 -103.460938 426.453125 -108.859375 C 427.660156 -119.054688 428.5625 -127.300781 429.15625 -133.59375 C 429.757812 -139.894531 430.0625 -145.144531 430.0625 -149.34375 C 430.0625 -165.539062 429.757812 -185.035156 429.15625 -207.828125 C 428.5625 -230.617188 426.910156 -254.460938 424.203125 -279.359375 C 421.503906 -304.253906 417.304688 -329.144531 411.609375 -354.03125 C 405.910156 -378.925781 398.113281 -401.117188 388.21875 -420.609375 C 378.320312 -440.097656 365.875 -455.988281 350.875 -468.28125 C 335.882812 -480.582031 317.894531 -486.734375 296.90625 -486.734375 C 282.507812 -486.734375 269.757812 -481.9375 258.65625 -472.34375 C 247.5625 -462.75 237.96875 -450.453125 229.875 -435.453125 C 221.78125 -420.460938 214.734375 -404.117188 208.734375 -386.421875 C 202.734375 -368.722656 197.929688 -351.78125 194.328125 -335.59375 C 199.734375 -352.382812 205.285156 -369.476562 210.984375 -386.875 C 216.679688 -404.269531 223.578125 -420.164062 231.671875 -434.5625 C 239.765625 -448.957031 249.207031 -460.800781 260 -470.09375 C 270.800781 -479.394531 283.398438 -484.046875 297.796875 -484.046875 C 316.390625 -484.046875 332.429688 -478.945312 345.921875 -468.75 C 359.421875 -458.550781 370.816406 -445.351562 380.109375 -429.15625 C 389.410156 -412.957031 396.910156 -394.507812 402.609375 -373.8125 C 408.316406 -353.125 412.664062 -332.132812 415.65625 -310.84375 C 418.65625 -289.550781 420.601562 -268.859375 421.5 -248.765625 C 422.40625 -228.671875 422.859375 -211.425781 422.859375 -197.03125 C 422.859375 -185.632812 422.707031 -174.238281 422.40625 -162.84375 C 422.101562 -151.445312 421.65625 -139.753906 421.0625 -127.765625 C 415.664062 -150.554688 411.613281 -174.394531 408.90625 -199.28125 C 406.207031 -224.175781 403.359375 -248.769531 400.359375 -273.0625 C 397.367188 -297.351562 393.625 -320.742188 389.125 -343.234375 C 384.625 -365.722656 378.175781 -386.566406 369.78125 -405.765625 L 376.078125 -414.765625 C 370.078125 -428.554688 363.328125 -439.203125 355.828125 -446.703125 C 348.335938 -454.203125 340.992188 -459.75 333.796875 -463.34375 C 326.597656 -466.945312 320 -469.046875 314 -469.640625 C 308 -470.242188 304.097656 -470.546875 302.296875 -470.546875 C 287.304688 -470.546875 273.960938 -465.144531 262.265625 -454.34375 C 250.566406 -443.550781 240.367188 -429.007812 231.671875 -410.71875 C 222.972656 -392.425781 215.320312 -371.28125 208.71875 -347.28125 C 202.125 -323.289062 196.425781 -298.097656 191.625 -271.703125 C 186.832031 -245.316406 182.632812 -218.773438 179.03125 -192.078125 C 175.4375 -165.390625 172.441406 -140.351562 170.046875 -116.96875 L 178.140625 -116.96875 C 181.140625 -137.351562 184.285156 -159.84375 187.578125 -184.4375 C 190.878906 -209.03125 194.476562 -234.070312 198.375 -259.5625 C 202.28125 -285.050781 206.929688 -309.789062 212.328125 -333.78125 C 217.722656 -357.78125 224.171875 -379.375 231.671875 -398.5625 C 239.171875 -417.757812 248.019531 -433.359375 258.21875 -445.359375 C 267.8125 -456.753906 279.503906 -463.347656 293.296875 -465.140625 C 280.109375 -462.140625 269.015625 -453.742188 260.015625 -439.953125 C 250.421875 -425.554688 242.023438 -407.859375 234.828125 -386.859375 C 227.628906 -365.867188 221.179688 -342.925781 215.484375 -318.03125 C 209.785156 -293.144531 204.535156 -269.304688 199.734375 -246.515625 L 181.734375 -115.15625 C 179.335938 -106.757812 177.539062 -99.265625 176.34375 -92.671875 L 172.75 -73.78125 C 171.539062 -67.78125 170.335938 -61.328125 169.140625 -54.421875 C 167.941406 -47.523438 166.441406 -39.582031 164.640625 -30.59375 L 161.953125 -19.796875 L 156.546875 -19.796875 L 65.671875 -50.390625 C 62.679688 -50.984375 60.4375 -51.878906 58.9375 -53.078125 C 57.4375 -54.273438 55.785156 -55.773438 53.984375 -57.578125 Z M 210.53125 -519.109375 C 198.53125 -508.921875 189.082031 -497.976562 182.1875 -486.28125 C 175.289062 -474.59375 168.84375 -462.75 162.84375 -450.75 L 162.84375 -449.84375 C 171.238281 -467.238281 182.9375 -484.9375 197.9375 -502.9375 C 212.332031 -519.71875 231.523438 -532.304688 255.515625 -540.703125 C 247.710938 -538.304688 240.210938 -535.910156 233.015625 -533.515625 C 224.617188 -530.515625 217.125 -525.710938 210.53125 -519.109375 Z M 318.5 -548.796875 C 315.5 -549.398438 311.300781 -549.703125 305.90625 -549.703125 C 325.09375 -544.898438 343.082031 -539.648438 359.875 -533.953125 C 376.675781 -528.253906 392.570312 -517.015625 407.5625 -500.234375 C 397.363281 -514.015625 384.015625 -524.804688 367.515625 -532.609375 C 351.023438 -540.410156 334.6875 -545.804688 318.5 -548.796875 Z M 342.78125 -446.25 C 337.988281 -449.851562 332.441406 -452.703125 326.140625 -454.796875 C 319.847656 -456.898438 312.203125 -459.75 303.203125 -463.34375 L 302.296875 -465.140625 C 312.492188 -464.546875 321.488281 -462.296875 329.28125 -458.390625 C 337.082031 -454.492188 344.582031 -447.75 351.78125 -438.15625 Z M 409.359375 -498.4375 C 417.753906 -488.238281 425.550781 -476.539062 432.75 -463.34375 C 439.945312 -450.144531 446.25 -438.453125 451.65625 -428.265625 C 445.65625 -442.054688 439.953125 -454.648438 434.546875 -466.046875 C 429.148438 -477.441406 420.753906 -488.238281 409.359375 -498.4375 Z M 409.359375 -498.4375" transform="translate(1245.525 1385.383)"/></g></g></g><g fill="#6B3E0A"><g><g><path d="M 119.65625 -144.859375 C 129.257812 -141.859375 140.804688 -136.457031 154.296875 -128.65625 C 167.796875 -120.863281 182.941406 -112.765625 199.734375 -104.359375 C 216.523438 -95.960938 234.96875 -88.460938 255.0625 -81.859375 C 275.15625 -75.265625 296.597656 -71.96875 319.390625 -71.96875 L 329.296875 -71.96875 C 332.890625 -71.96875 337.085938 -72.570312 341.890625 -73.78125 L 351.78125 -66.578125 C 375.175781 -73.773438 394.367188 -87.421875 409.359375 -107.515625 C 424.359375 -127.609375 431.859375 -154.75 431.859375 -188.9375 C 431.859375 -213.53125 426.007812 -230.472656 414.3125 -239.765625 C 402.613281 -249.066406 381.171875 -253.71875 349.984375 -253.71875 C 330.785156 -253.71875 310.835938 -252.367188 290.140625 -249.671875 C 269.453125 -246.972656 247.710938 -245.625 224.921875 -245.625 C 214.722656 -245.625 204.222656 -246.070312 193.421875 -246.96875 C 182.628906 -247.863281 171.535156 -249.8125 160.140625 -252.8125 L 160.140625 -247.421875 C 184.140625 -241.421875 207.832031 -238.421875 231.21875 -238.421875 C 254.007812 -238.421875 275.75 -239.769531 296.4375 -242.46875 C 317.132812 -245.164062 337.082031 -246.515625 356.28125 -246.515625 C 372.476562 -246.515625 385.222656 -244.863281 394.515625 -241.5625 C 403.816406 -238.269531 410.863281 -233.921875 415.65625 -228.515625 C 420.457031 -223.117188 423.609375 -216.671875 425.109375 -209.171875 C 426.609375 -201.679688 427.359375 -193.4375 427.359375 -184.4375 C 427.359375 -156.25 419.859375 -132.257812 404.859375 -112.46875 C 390.472656 -93.875 373.378906 -82.175781 353.578125 -77.375 C 375.773438 -85.175781 393.171875 -98.671875 405.765625 -117.859375 C 418.960938 -138.253906 425.5625 -161.046875 425.5625 -186.234375 C 425.5625 -204.234375 420.910156 -218.03125 411.609375 -227.625 C 402.316406 -237.21875 386.273438 -242.015625 363.484375 -242.015625 C 344.890625 -242.015625 323.894531 -240.816406 300.5 -238.421875 C 277.101562 -236.023438 252.210938 -234.828125 225.828125 -234.828125 C 209.628906 -234.828125 190.882812 -236.925781 169.59375 -241.125 C 148.300781 -245.320312 128.054688 -253.117188 108.859375 -264.515625 C 89.671875 -275.910156 73.476562 -291.65625 60.28125 -311.75 C 47.082031 -331.84375 40.484375 -358.082031 40.484375 -390.46875 C 40.484375 -416.257812 45.726562 -440.101562 56.21875 -462 C 66.71875 -483.894531 80.664062 -503.085938 98.0625 -519.578125 C 115.457031 -536.066406 135.398438 -549.109375 157.890625 -558.703125 C 180.390625 -568.296875 203.632812 -573.394531 227.625 -574 C 250.414062 -574 272.15625 -570.847656 292.84375 -564.546875 C 313.539062 -558.242188 333.1875 -550.144531 351.78125 -540.25 C 370.375 -530.351562 388.066406 -519.410156 404.859375 -507.421875 C 421.660156 -495.429688 437.257812 -483.4375 451.65625 -471.4375 L 433.65625 -453.453125 C 429.457031 -453.453125 423.160156 -456 414.765625 -461.09375 C 406.367188 -466.195312 393.472656 -475.046875 376.078125 -487.640625 L 370.671875 -479.546875 C 392.265625 -462.148438 408.007812 -445.953125 417.90625 -430.953125 C 427.800781 -415.960938 432.75 -404.269531 432.75 -395.875 C 431.550781 -391.070312 428.554688 -388.671875 423.765625 -388.671875 C 418.960938 -388.671875 409.363281 -392.566406 394.96875 -400.359375 C 380.570312 -408.160156 364.226562 -416.859375 345.9375 -426.453125 C 327.644531 -436.054688 308.300781 -444.753906 287.90625 -452.546875 C 267.507812 -460.347656 248.914062 -464.25 232.125 -464.25 C 222.53125 -464.25 212.929688 -462.445312 203.328125 -458.84375 C 193.734375 -455.25 185.035156 -450.300781 177.234375 -444 C 169.441406 -437.707031 162.992188 -430.0625 157.890625 -421.0625 C 152.796875 -412.0625 150.25 -402.164062 150.25 -391.375 C 150.25 -373.976562 158.34375 -362.28125 174.53125 -356.28125 C 190.726562 -350.28125 212.023438 -347.28125 238.421875 -347.28125 C 243.816406 -347.28125 249.660156 -347.429688 255.953125 -347.734375 C 262.253906 -348.035156 268.109375 -348.785156 273.515625 -349.984375 C 287.304688 -349.984375 296.453125 -350.429688 300.953125 -351.328125 C 305.453125 -352.234375 309.800781 -352.6875 314 -352.6875 C 339.789062 -352.6875 365.582031 -350.882812 391.375 -347.28125 C 417.164062 -343.6875 440.253906 -335.890625 460.640625 -323.890625 C 481.035156 -311.898438 497.53125 -294.804688 510.125 -272.609375 C 522.71875 -250.421875 529.015625 -220.734375 529.015625 -183.546875 C 529.015625 -157.753906 524.664062 -132.109375 515.96875 -106.609375 C 507.28125 -81.117188 494.238281 -58.328125 476.84375 -38.234375 C 459.445312 -18.140625 437.851562 -1.945312 412.0625 10.34375 C 386.269531 22.644531 355.976562 28.796875 321.1875 28.796875 C 300.195312 28.796875 275.457031 24.742188 246.96875 16.640625 C 218.476562 8.546875 191.488281 -1.046875 166 -12.140625 C 140.507812 -23.242188 118.914062 -34.789062 101.21875 -46.78125 C 83.519531 -58.78125 74.671875 -68.976562 74.671875 -77.375 C 74.671875 -79.769531 76.171875 -81.566406 79.171875 -82.765625 C 115.765625 -55.773438 152.953125 -33.582031 190.734375 -16.1875 C 227.921875 0 266.007812 8.992188 305 10.796875 C 285.800781 9.597656 266.609375 6.300781 247.421875 0.90625 C 227.628906 -5.09375 207.984375 -12.441406 188.484375 -21.140625 C 168.992188 -29.835938 150.398438 -39.734375 132.703125 -50.828125 C 115.015625 -61.929688 98.070312 -73.179688 81.875 -84.578125 L 95.375 -96.265625 C 93.570312 -96.867188 90.269531 -98.96875 85.46875 -102.5625 C 80.675781 -106.164062 76.03125 -110.664062 71.53125 -116.0625 C 67.03125 -121.457031 62.976562 -127.15625 59.375 -133.15625 C 55.78125 -139.15625 53.984375 -144.851562 53.984375 -150.25 C 53.984375 -156.25 55.179688 -160.144531 57.578125 -161.9375 C 59.984375 -163.738281 62.679688 -164.640625 65.671875 -164.640625 C 68.671875 -164.640625 74.96875 -162.539062 84.5625 -158.34375 C 94.164062 -154.144531 105.863281 -149.648438 119.65625 -144.859375 Z M 318.5 -53.078125 C 297.5 -53.078125 274.253906 -57.425781 248.765625 -66.125 C 223.273438 -74.820312 199.132812 -86.066406 176.34375 -99.859375 C 194.9375 -87.265625 215.628906 -76.019531 238.421875 -66.125 C 261.210938 -56.226562 287.601562 -51.28125 317.59375 -51.28125 C 357.78125 -51.28125 389.71875 -63.578125 413.40625 -88.171875 C 437.101562 -112.765625 448.953125 -145.753906 448.953125 -187.140625 L 448.953125 -196.140625 C 445.953125 -215.328125 439.503906 -231.066406 429.609375 -243.359375 C 419.710938 -255.660156 404.566406 -262.410156 384.171875 -263.609375 C 396.765625 -261.210938 407.109375 -257.3125 415.203125 -251.90625 C 423.304688 -246.507812 429.609375 -240.0625 434.109375 -232.5625 C 438.609375 -225.070312 441.753906 -216.828125 443.546875 -207.828125 C 445.347656 -198.828125 446.25 -189.53125 446.25 -179.9375 C 443.851562 -140.351562 431.257812 -109.3125 408.46875 -86.8125 C 385.675781 -64.320312 355.6875 -53.078125 318.5 -53.078125 Z M 432.75 -18 C 447.75 -27.59375 459.742188 -39.285156 468.734375 -53.078125 C 477.734375 -66.878906 485.535156 -81.273438 492.140625 -96.265625 C 479.546875 -71.078125 462.300781 -48.882812 440.40625 -29.6875 C 418.507812 -10.5 392.566406 1.492188 362.578125 6.296875 C 373.972656 4.492188 385.816406 1.945312 398.109375 -1.34375 C 410.410156 -4.644531 421.957031 -10.195312 432.75 -18 Z M 518.21875 -187.140625 C 518.21875 -193.734375 517.015625 -200.03125 514.609375 -206.03125 C 512.828125 -210.832031 511.332031 -215.929688 510.125 -221.328125 L 511.03125 -209.625 C 511.632812 -204.832031 511.9375 -198.238281 511.9375 -189.84375 C 511.9375 -173.644531 510.132812 -158.046875 506.53125 -143.046875 C 502.9375 -128.054688 498.4375 -113.363281 493.03125 -98.96875 C 498.4375 -112.164062 503.679688 -126.109375 508.765625 -140.796875 C 513.859375 -155.492188 517.007812 -170.941406 518.21875 -187.140625 Z M 510.125 -224.03125 C 510.125 -223.425781 510.125 -222.523438 510.125 -221.328125 C 510.125 -222.523438 510.125 -223.425781 510.125 -224.03125 Z M 352.6875 -76.46875 C 352.082031 -76.46875 351.484375 -76.46875 350.890625 -76.46875 C 351.484375 -76.46875 352.082031 -76.46875 352.6875 -76.46875 Z M 352.6875 -76.46875" transform="translate(1801.544 1385.383)"/></g></g></g><g fill="#6B3E0A"><g><g><path d="M 127.765625 260.90625 C 128.960938 227.320312 129.859375 194.1875 130.453125 161.5 C 131.054688 128.8125 131.359375 94.171875 131.359375 57.578125 C 131.359375 41.984375 131.054688 26.535156 130.453125 11.234375 C 129.859375 -4.054688 128.960938 -18.894531 127.765625 -33.28125 L 127.765625 65.671875 C 127.765625 98.660156 127.3125 131.5 126.40625 164.1875 C 125.507812 196.882812 123.257812 229.125 119.65625 260.90625 C 116.65625 255.507812 113.957031 249.960938 111.5625 244.265625 C 109.164062 238.566406 107.367188 232.421875 106.171875 225.828125 C 107.367188 209.628906 108.113281 194.78125 108.40625 181.28125 C 108.707031 167.789062 108.859375 152.945312 108.859375 136.75 L 119.65625 131.359375 C 117.863281 118.765625 116.664062 106.019531 116.0625 93.125 C 115.457031 80.226562 115.15625 67.476562 115.15625 54.875 C 115.15625 41.082031 115.304688 27.738281 115.609375 14.84375 C 115.910156 1.945312 116.0625 -11.394531 116.0625 -25.1875 C 116.0625 -41.988281 115.609375 -58.632812 114.703125 -75.125 C 113.804688 -91.613281 111.859375 -108.257812 108.859375 -125.0625 L 106.171875 -125.0625 C 107.367188 -99.863281 108.414062 -74.96875 109.3125 -50.375 C 110.207031 -25.789062 110.65625 -1.203125 110.65625 23.390625 C 110.65625 34.191406 110.359375 44.988281 109.765625 55.78125 L 108.859375 79.171875 C 107.660156 21.585938 105.5625 -34.789062 102.5625 -89.96875 C 100.164062 -148.75 95.96875 -209.03125 89.96875 -270.8125 L 93.5625 -345.484375 C 86.96875 -346.085938 80.070312 -346.390625 72.875 -346.390625 L 52.1875 -346.390625 L 49.484375 -367.078125 C 49.484375 -370.078125 51.582031 -372.773438 55.78125 -375.171875 C 59.976562 -377.578125 68.375 -378.78125 80.96875 -378.78125 L 89.96875 -378.78125 L 89.96875 -389.578125 C 70.175781 -391.972656 54.726562 -396.171875 43.625 -402.171875 C 32.53125 -408.171875 26.984375 -414.46875 26.984375 -421.0625 C 26.984375 -427.0625 32.378906 -432.304688 43.171875 -436.796875 C 53.972656 -441.296875 67.921875 -444.894531 85.015625 -447.59375 C 102.109375 -450.300781 120.851562 -452.253906 141.25 -453.453125 C 161.644531 -454.648438 181.441406 -455.25 200.640625 -455.25 C 221.628906 -455.25 244.269531 -454.648438 268.5625 -453.453125 C 292.851562 -452.253906 317.296875 -449.253906 341.890625 -444.453125 C 366.484375 -439.648438 390.320312 -432.300781 413.40625 -422.40625 C 436.5 -412.507812 457.34375 -398.710938 475.9375 -381.015625 C 494.53125 -363.328125 509.972656 -341.132812 522.265625 -314.4375 C 534.554688 -287.75 542.503906 -255.210938 546.109375 -216.828125 C 546.109375 -184.441406 539.0625 -157.898438 524.96875 -137.203125 C 510.875 -116.515625 493.929688 -99.867188 474.140625 -87.265625 C 454.347656 -74.671875 433.804688 -65.675781 412.515625 -60.28125 C 391.222656 -54.882812 373.675781 -51.285156 359.875 -49.484375 C 346.082031 -46.484375 330.1875 -43.03125 312.1875 -39.125 C 294.195312 -35.226562 278.90625 -33.28125 266.3125 -33.28125 C 252.519531 -33.28125 244.421875 -34.78125 242.015625 -37.78125 C 239.617188 -40.78125 238.421875 -44.679688 238.421875 -49.484375 C 265.410156 -50.679688 292.398438 -52.929688 319.390625 -56.234375 C 346.378906 -59.535156 373.375 -65.382812 400.375 -73.78125 C 373.375 -67.175781 346.378906 -62.222656 319.390625 -58.921875 C 292.398438 -55.628906 265.410156 -53.382812 238.421875 -52.1875 C 238.421875 -55.78125 238.117188 -59.523438 237.515625 -63.421875 C 236.921875 -67.328125 235.125 -69.28125 232.125 -69.28125 C 226.125 -69.28125 221.472656 -59.679688 218.171875 -40.484375 C 214.878906 -21.296875 212.484375 1.640625 210.984375 28.328125 C 209.484375 55.023438 208.582031 82.46875 208.28125 110.65625 C 207.976562 138.851562 207.828125 162.25 207.828125 180.84375 C 207.828125 189.238281 208.273438 198.082031 209.171875 207.375 C 210.078125 216.675781 210.53125 224.625 210.53125 231.21875 C 210.53125 237.21875 209.628906 242.316406 207.828125 246.515625 C 206.023438 250.710938 200.925781 252.8125 192.53125 252.8125 L 192.53125 139.453125 C 191.332031 158.648438 190.582031 177.546875 190.28125 196.140625 C 189.988281 214.734375 189.84375 233.625 189.84375 252.8125 L 173.640625 252.8125 L 173.640625 260.015625 C 173.640625 265.410156 174.539062 269.304688 176.34375 271.703125 C 169.738281 283.097656 162.238281 288.796875 153.84375 288.796875 C 147.25 288.796875 142.300781 287 139 283.40625 C 135.707031 279.8125 131.0625 275.015625 125.0625 269.015625 Z M 215.03125 -114.265625 L 227.625 -114.265625 C 248.613281 -114.265625 272.753906 -115.460938 300.046875 -117.859375 C 327.335938 -120.253906 352.976562 -124.75 376.96875 -131.34375 C 400.96875 -137.945312 421.210938 -147.242188 437.703125 -159.234375 C 454.203125 -171.234375 462.453125 -186.832031 462.453125 -206.03125 L 462.453125 -213.234375 C 462.453125 -219.234375 462 -225.828125 461.09375 -233.015625 C 460.195312 -240.210938 457.648438 -247.113281 453.453125 -253.71875 C 454.046875 -250.71875 455.539062 -244.71875 457.9375 -235.71875 C 460.34375 -226.726562 461.546875 -219.234375 461.546875 -213.234375 C 461.546875 -194.640625 455.097656 -179.492188 442.203125 -167.796875 C 429.304688 -156.097656 413.109375 -146.800781 393.609375 -139.90625 C 374.117188 -133.007812 352.828125 -128.207031 329.734375 -125.5 C 306.648438 -122.800781 284.609375 -121.453125 263.609375 -121.453125 L 245.625 -121.453125 C 239.625 -121.453125 233.625 -121.753906 227.625 -122.359375 C 236.019531 -128.953125 246.960938 -133.597656 260.453125 -136.296875 C 273.953125 -139.003906 288.195312 -141.253906 303.1875 -143.046875 C 318.1875 -144.847656 332.882812 -146.648438 347.28125 -148.453125 C 361.675781 -150.253906 373.972656 -153.253906 384.171875 -157.453125 L 389.578125 -146.65625 C 410.566406 -156.851562 425.410156 -166.898438 434.109375 -176.796875 C 442.804688 -186.691406 447.15625 -200.335938 447.15625 -217.734375 C 447.15625 -245.316406 439.503906 -269.601562 424.203125 -290.59375 C 408.910156 -311.59375 388.367188 -325.691406 362.578125 -332.890625 L 359.875 -327.484375 C 382.070312 -319.085938 401.265625 -305.289062 417.453125 -286.09375 C 433.648438 -266.90625 441.75 -243.816406 441.75 -216.828125 C 441.75 -202.429688 438.453125 -191.035156 431.859375 -182.640625 C 425.859375 -175.441406 416.257812 -168.84375 403.0625 -162.84375 C 413.863281 -167.644531 421.960938 -173.644531 427.359375 -180.84375 C 433.953125 -189.238281 438.453125 -198.535156 440.859375 -208.734375 C 440.859375 -233.921875 434.859375 -255.210938 422.859375 -272.609375 C 410.859375 -290.003906 394.0625 -303.945312 372.46875 -314.4375 C 350.882812 -324.9375 324.945312 -332.4375 294.65625 -336.9375 C 264.363281 -341.4375 230.921875 -343.6875 194.328125 -343.6875 C 199.128906 -317.894531 201.976562 -289.851562 202.875 -259.5625 C 203.78125 -229.269531 205.734375 -199.726562 208.734375 -170.9375 Z M 124.15625 -251.921875 C 125.351562 -253.117188 126.550781 -258.210938 127.75 -267.203125 C 128.957031 -276.203125 130.007812 -285.953125 130.90625 -296.453125 C 131.800781 -306.953125 132.695312 -316.847656 133.59375 -326.140625 C 134.5 -335.441406 135.550781 -340.988281 136.75 -342.78125 L 125.0625 -343.6875 Z M 398.5625 -161.046875 L 403.0625 -162.84375 Z M 398.5625 -161.046875" transform="translate(2380.056 1385.383)"/></g></g></g><g fill="#6B3E0A"><g><g><path d="M 68.375 -46.78125 C 70.769531 -63.570312 73.019531 -83.210938 75.125 -105.703125 C 77.226562 -128.203125 79.175781 -150.847656 80.96875 -173.640625 C 82.769531 -196.429688 84.570312 -218.773438 86.375 -240.671875 C 88.175781 -262.566406 89.972656 -281.609375 91.765625 -297.796875 C 88.765625 -281.609375 86.066406 -263.015625 83.671875 -242.015625 C 81.273438 -221.023438 78.875 -199.429688 76.46875 -177.234375 C 74.070312 -155.046875 71.671875 -133.003906 69.265625 -111.109375 C 66.867188 -89.222656 64.773438 -69.582031 62.984375 -52.1875 C 53.984375 -58.1875 49.484375 -66.28125 49.484375 -76.46875 C 49.484375 -88.46875 49.78125 -98.515625 50.375 -106.609375 C 50.976562 -114.710938 51.878906 -124.160156 53.078125 -134.953125 L 62.984375 -143.953125 C 62.378906 -146.953125 62.078125 -149.648438 62.078125 -152.046875 L 62.078125 -161.046875 C 62.078125 -174.835938 63.578125 -190.582031 66.578125 -208.28125 C 69.578125 -225.976562 73.023438 -243.972656 76.921875 -262.265625 C 80.816406 -280.554688 84.265625 -298.25 87.265625 -315.34375 C 90.265625 -332.4375 91.765625 -347.28125 91.765625 -359.875 L 80.96875 -362.578125 C 79.769531 -348.179688 77.96875 -331.835938 75.5625 -313.546875 C 73.164062 -295.253906 70.617188 -276.359375 67.921875 -256.859375 C 65.222656 -237.367188 62.675781 -218.023438 60.28125 -198.828125 C 59.082031 -188.640625 57.882812 -179.046875 56.6875 -170.046875 C 57.882812 -186.835938 59.382812 -204.832031 61.1875 -224.03125 C 64.175781 -251.613281 67.320312 -279.050781 70.625 -306.34375 C 73.925781 -333.632812 77.078125 -360.472656 80.078125 -386.859375 C 83.078125 -413.253906 86.078125 -437.550781 89.078125 -459.75 C 89.078125 -468.75 91.320312 -478.492188 95.8125 -488.984375 C 100.3125 -499.484375 103.460938 -510.425781 105.265625 -521.8125 C 108.859375 -520.613281 111.859375 -520.015625 114.265625 -520.015625 L 120.5625 -520.015625 C 126.5625 -520.015625 130.457031 -518.664062 132.25 -515.96875 C 134.050781 -513.28125 134.953125 -509.535156 134.953125 -504.734375 L 134.953125 -500.234375 L 143.046875 -497.53125 C 147.847656 -506.53125 153.546875 -513.722656 160.140625 -519.109375 C 166.742188 -524.503906 173.34375 -527.203125 179.9375 -527.203125 C 194.332031 -527.203125 201.53125 -511.914062 201.53125 -481.34375 C 201.53125 -465.144531 199.878906 -447.898438 196.578125 -429.609375 C 193.285156 -411.316406 191.640625 -393.472656 191.640625 -376.078125 L 191.640625 -364.375 C 191.640625 -345.1875 189.539062 -324.34375 185.34375 -301.84375 C 181.144531 -279.351562 176.492188 -256.5625 171.390625 -233.46875 C 166.296875 -210.375 161.648438 -188.03125 157.453125 -166.4375 C 153.253906 -144.851562 151.15625 -125.0625 151.15625 -107.0625 C 151.15625 -102.863281 151.453125 -98.363281 152.046875 -93.5625 C 152.648438 -88.769531 152.953125 -84.273438 152.953125 -80.078125 C 152.953125 -71.078125 151.300781 -65.523438 148 -63.421875 C 144.695312 -61.328125 140.648438 -60.28125 135.859375 -60.28125 C 135.859375 -68.070312 135.554688 -77.664062 134.953125 -89.0625 C 134.359375 -100.46875 134.0625 -110.664062 134.0625 -119.65625 C 132.851562 -113.0625 132.25 -104.066406 132.25 -92.671875 C 132.25 -81.273438 131.648438 -70.476562 130.453125 -60.28125 L 116.96875 -60.28125 L 116.96875 -49.484375 C 111.5625 -39.890625 104.363281 -35.09375 95.375 -35.09375 C 91.175781 -35.09375 86.375 -36.289062 80.96875 -38.6875 C 75.570312 -41.082031 71.375 -43.78125 68.375 -46.78125 Z M 253.71875 -737.734375 C 243.519531 -731.742188 234.222656 -723.945312 225.828125 -714.34375 C 217.429688 -704.75 208.734375 -695.453125 199.734375 -686.453125 C 205.128906 -690.054688 209.925781 -693.957031 214.125 -698.15625 C 218.320312 -702.351562 222.671875 -706.550781 227.171875 -710.75 C 231.671875 -714.945312 236.46875 -719.144531 241.5625 -723.34375 C 246.664062 -727.539062 252.515625 -731.441406 259.109375 -735.046875 C 260.910156 -732.640625 262.5625 -730.535156 264.0625 -728.734375 C 265.5625 -726.941406 266.3125 -725.144531 266.3125 -723.34375 L 245.625 -702.65625 C 245.625 -703.851562 244.570312 -705.050781 242.46875 -706.25 C 240.375 -707.445312 238.722656 -708.046875 237.515625 -708.046875 C 235.722656 -702.046875 232.726562 -697.242188 228.53125 -693.640625 C 224.332031 -690.046875 220.128906 -686.75 215.921875 -683.75 C 211.722656 -680.757812 207.523438 -677.460938 203.328125 -673.859375 C 199.128906 -670.265625 196.128906 -665.46875 194.328125 -659.46875 L 194.328125 -657.671875 C 194.328125 -657.066406 195.226562 -656.765625 197.03125 -656.765625 L 242.015625 -699.046875 L 224.921875 -681.953125 C 216.523438 -673.554688 207.675781 -665.007812 198.375 -656.3125 C 189.082031 -647.613281 180.382812 -639.96875 172.28125 -633.375 C 164.1875 -626.78125 159.242188 -623.484375 157.453125 -623.484375 L 156.546875 -624.375 C 152.347656 -625.570312 148 -626.171875 143.5 -626.171875 C 139 -626.171875 134.351562 -626.472656 129.5625 -627.078125 C 129.5625 -631.878906 128.8125 -636.976562 127.3125 -642.375 C 125.8125 -647.769531 125.0625 -651.96875 125.0625 -654.96875 C 125.0625 -657.96875 126.5625 -659.46875 129.5625 -659.46875 C 129.5625 -661.269531 128.507812 -664.117188 126.40625 -668.015625 C 124.3125 -671.910156 122.0625 -676.40625 119.65625 -681.5 C 117.257812 -686.601562 115.007812 -692.003906 112.90625 -697.703125 C 110.8125 -703.398438 109.765625 -709.25 109.765625 -715.25 C 109.765625 -721.25 112.3125 -727.097656 117.40625 -732.796875 C 122.507812 -738.492188 128.507812 -743.441406 135.40625 -747.640625 C 142.300781 -751.835938 149.046875 -755.4375 155.640625 -758.4375 C 162.242188 -761.4375 167.046875 -763.535156 170.046875 -764.734375 C 172.441406 -764.734375 173.335938 -766.082031 172.734375 -768.78125 C 172.140625 -771.476562 173.039062 -772.828125 175.4375 -772.828125 L 191.640625 -767.4375 C 190.441406 -764.4375 186.691406 -759.484375 180.390625 -752.578125 C 174.085938 -745.679688 169.4375 -740.734375 166.4375 -737.734375 C 170.644531 -740.734375 175.597656 -745.234375 181.296875 -751.234375 C 186.992188 -757.234375 191.335938 -761.734375 194.328125 -764.734375 C 197.328125 -763.535156 200.023438 -762.332031 202.421875 -761.125 C 204.828125 -759.925781 206.628906 -759.328125 207.828125 -759.328125 L 210.53125 -762.03125 C 214.726562 -762.03125 219.375 -761.128906 224.46875 -759.328125 C 229.570312 -757.535156 234.222656 -755.4375 238.421875 -753.03125 C 242.617188 -750.632812 246.21875 -747.9375 249.21875 -744.9375 C 252.21875 -741.9375 253.71875 -739.535156 253.71875 -737.734375 Z M 54.875 -148.453125 C 55.476562 -155.046875 56.082031 -161.644531 56.6875 -168.25 C 56.082031 -161.050781 55.476562 -154.453125 54.875 -148.453125 Z M 54.875 -148.453125" transform="translate(2971.163 1385.383)"/></g></g></g><g fill="#6B3E0A"><g><g><path d="M 200.640625 9.890625 C 194.640625 11.097656 188.039062 11.703125 180.84375 11.703125 L 154.75 11.703125 C 139.15625 11.703125 128.207031 13.5 121.90625 17.09375 C 115.613281 20.695312 111.863281 22.5 110.65625 22.5 L 107.0625 6.296875 L 107.0625 -9.890625 L 102.5625 -94.46875 C 101.363281 -110.664062 98.066406 -128.0625 92.671875 -146.65625 C 87.273438 -165.25 83.078125 -184.140625 80.078125 -203.328125 C 78.273438 -215.929688 76.773438 -227.929688 75.578125 -239.328125 L 71.96875 -274.40625 C 70.769531 -286.40625 69.421875 -298.703125 67.921875 -311.296875 C 66.421875 -323.890625 64.175781 -337.382812 61.1875 -351.78125 C 61.1875 -355.382812 61.332031 -358.984375 61.625 -362.578125 C 61.925781 -366.179688 62.078125 -369.78125 62.078125 -373.375 C 62.078125 -391.96875 60.578125 -410.257812 57.578125 -428.25 C 54.578125 -446.25 50.378906 -463.945312 44.984375 -481.34375 C 49.179688 -483.144531 53.078125 -484.789062 56.671875 -486.28125 C 60.273438 -487.78125 63.578125 -488.53125 66.578125 -488.53125 C 69.578125 -488.53125 72.875 -485.082031 76.46875 -478.1875 C 80.070312 -471.289062 83.972656 -457.046875 88.171875 -435.453125 C 89.367188 -435.453125 91.164062 -435.898438 93.5625 -436.796875 C 95.96875 -437.703125 97.769531 -438.15625 98.96875 -438.15625 C 98.363281 -448.351562 96.863281 -459.296875 94.46875 -470.984375 C 92.070312 -482.679688 89.671875 -493.925781 87.265625 -504.71875 C 84.867188 -515.507812 82.617188 -525.253906 80.515625 -533.953125 C 78.421875 -542.648438 77.375 -549.695312 77.375 -555.09375 C 77.375 -556.300781 77.523438 -557.800781 77.828125 -559.59375 C 78.128906 -561.394531 79.476562 -562.296875 81.875 -562.296875 C 84.875 -562.296875 88.769531 -558.992188 93.5625 -552.390625 C 98.363281 -545.796875 103.460938 -537.40625 108.859375 -527.21875 C 114.265625 -517.03125 119.515625 -506.085938 124.609375 -494.390625 C 129.703125 -482.691406 134.347656 -471.742188 138.546875 -461.546875 C 154.742188 -492.140625 173.1875 -515.378906 193.875 -531.265625 C 214.570312 -547.148438 241.71875 -555.09375 275.3125 -555.09375 C 299.90625 -555.09375 320 -552.242188 335.59375 -546.546875 C 351.1875 -540.847656 363.332031 -534.550781 372.03125 -527.65625 C 380.726562 -520.757812 386.578125 -514.316406 389.578125 -508.328125 L 394.96875 -499.328125 C 394.96875 -495.734375 393.171875 -493.335938 389.578125 -492.140625 C 373.972656 -507.117188 356.273438 -518.503906 336.484375 -526.296875 C 316.691406 -534.097656 296.300781 -538 275.3125 -538 C 254.914062 -538 239.617188 -535.300781 229.421875 -529.90625 C 219.828125 -525.113281 209.628906 -519.125 198.828125 -511.9375 C 210.222656 -519.125 220.722656 -524.816406 230.328125 -529.015625 C 240.523438 -533.210938 255.21875 -535.3125 274.40625 -535.3125 C 295.40625 -535.3125 315.5 -531.265625 334.6875 -523.171875 C 353.882812 -515.078125 370.378906 -504.734375 384.171875 -492.140625 C 381.171875 -490.941406 378.617188 -489.59375 376.515625 -488.09375 C 374.421875 -486.59375 373.375 -484.34375 373.375 -481.34375 C 376.375 -481.34375 379.671875 -479.390625 383.265625 -475.484375 C 386.867188 -471.585938 390.171875 -466.941406 393.171875 -461.546875 C 396.171875 -456.148438 398.71875 -450.601562 400.8125 -444.90625 C 402.914062 -439.207031 403.96875 -434.554688 403.96875 -430.953125 C 403.96875 -420.753906 400.066406 -415.65625 392.265625 -415.65625 C 386.273438 -415.65625 379.078125 -417.753906 370.671875 -421.953125 C 368.878906 -422.554688 365.132812 -425.859375 359.4375 -431.859375 C 353.738281 -437.859375 346.6875 -444.003906 338.28125 -450.296875 C 329.882812 -456.597656 320.285156 -462.445312 309.484375 -467.84375 C 298.691406 -473.238281 286.703125 -475.9375 273.515625 -475.9375 C 262.710938 -475.9375 253.257812 -473.6875 245.15625 -469.1875 C 237.0625 -464.695312 229.71875 -458.703125 223.125 -451.203125 C 216.53125 -443.703125 210.53125 -435.15625 205.125 -425.5625 L 193.4375 -403.96875 C 202.4375 -420.164062 212.332031 -434.859375 223.125 -448.046875 C 235.125 -463.640625 250.117188 -471.4375 268.109375 -471.4375 C 283.703125 -471.4375 298.097656 -467.988281 311.296875 -461.09375 C 324.492188 -454.195312 335.289062 -445.648438 343.6875 -435.453125 C 333.488281 -439.648438 321.488281 -443.847656 307.6875 -448.046875 C 293.894531 -452.242188 280.703125 -454.34375 268.109375 -454.34375 C 261.515625 -454.34375 255.816406 -452.84375 251.015625 -449.84375 C 246.210938 -446.851562 242.160156 -443.109375 238.859375 -438.609375 C 235.566406 -434.109375 232.570312 -429.15625 229.875 -423.75 C 227.175781 -418.351562 224.328125 -413.257812 221.328125 -408.46875 L 209.625 -406.671875 C 199.425781 -389.273438 191.175781 -369.03125 184.875 -345.9375 C 178.582031 -322.84375 175.4375 -298.703125 175.4375 -273.515625 C 175.4375 -258.515625 176.1875 -245.015625 177.6875 -233.015625 C 179.1875 -221.023438 181.4375 -208.734375 184.4375 -196.140625 L 195.234375 -168.25 L 193.4375 -194.328125 C 192.238281 -214.722656 191.035156 -232.867188 189.828125 -248.765625 C 188.628906 -264.660156 188.03125 -282.207031 188.03125 -301.40625 C 189.238281 -318.789062 191.640625 -335.285156 195.234375 -350.890625 C 198.234375 -364.078125 202.734375 -376.367188 208.734375 -387.765625 C 201.535156 -373.367188 196.734375 -356.875 194.328125 -338.28125 C 191.335938 -317.894531 189.84375 -296.304688 189.84375 -273.515625 C 189.84375 -255.515625 190.738281 -238.414062 192.53125 -222.21875 C 194.332031 -206.03125 196.582031 -189.835938 199.28125 -173.640625 C 201.976562 -157.441406 204.828125 -140.796875 207.828125 -123.703125 C 210.828125 -106.609375 213.226562 -87.867188 215.03125 -67.484375 L 217.734375 -50.390625 L 223.125 0.90625 Z M 211.4375 -392.265625 L 208.734375 -387.765625 Z M 211.4375 -392.265625" transform="translate(3264.468 1385.383)"/></g></g></g><g fill="#6B3E0A"><g><g><path d="M 372.484375 16.1875 C 349.679688 23.988281 332.28125 28.335938 320.28125 29.234375 C 308.289062 30.140625 297.796875 30.890625 288.796875 31.484375 C 255.210938 31.484375 224.925781 25.1875 197.9375 12.59375 C 170.945312 0 147.851562 -17.09375 128.65625 -38.6875 C 109.457031 -60.28125 94.609375 -85.617188 84.109375 -114.703125 C 73.617188 -143.796875 68.375 -174.835938 68.375 -207.828125 C 68.375 -227.023438 70.171875 -246.96875 73.765625 -267.65625 C 77.367188 -288.351562 82.769531 -308.75 89.96875 -328.84375 C 97.164062 -348.9375 106.460938 -367.679688 117.859375 -385.078125 C 128.660156 -402.472656 141.554688 -418.066406 156.546875 -431.859375 C 140.953125 -419.265625 127.757812 -404.269531 116.96875 -386.875 C 105.5625 -369.476562 95.957031 -350.734375 88.15625 -330.640625 C 80.363281 -310.546875 74.664062 -289.851562 71.0625 -268.5625 C 67.46875 -247.269531 65.671875 -226.726562 65.671875 -206.9375 C 65.671875 -181.738281 69.71875 -154.894531 77.8125 -126.40625 C 85.914062 -97.914062 98.960938 -71.523438 116.953125 -47.234375 C 134.953125 -22.941406 158.195312 -2.703125 186.6875 13.484375 C 215.175781 29.679688 249.816406 37.78125 290.609375 37.78125 C 309.796875 37.78125 329.890625 35.082031 350.890625 29.6875 C 328.097656 44.6875 302.601562 52.1875 274.40625 52.1875 C 251.613281 52.1875 230.171875 48.734375 210.078125 41.828125 C 189.984375 34.929688 171.390625 25.335938 154.296875 13.046875 C 137.203125 0.753906 121.753906 -13.785156 107.953125 -30.578125 C 94.160156 -47.378906 82.46875 -65.378906 72.875 -84.578125 L 80.96875 -91.765625 C 70.769531 -112.160156 63.421875 -132.554688 58.921875 -152.953125 C 54.429688 -173.347656 52.1875 -194.039062 52.1875 -215.03125 C 52.1875 -245.613281 56.535156 -275 65.234375 -303.1875 C 73.929688 -331.382812 85.472656 -358.082031 99.859375 -383.28125 L 121.453125 -412.96875 C 125.054688 -419.5625 130.304688 -426.15625 137.203125 -432.75 C 144.097656 -439.351562 151.742188 -445.800781 160.140625 -452.09375 C 168.546875 -458.394531 177.394531 -464.09375 186.6875 -469.1875 C 195.988281 -474.289062 204.835938 -478.941406 213.234375 -483.140625 C 234.828125 -493.929688 256.414062 -503.671875 278 -512.359375 C 299.59375 -521.054688 324.785156 -527.503906 353.578125 -531.703125 L 349.984375 -534.40625 C 294.804688 -529.007812 248.019531 -515.664062 209.625 -494.375 C 171.238281 -473.09375 140.050781 -447.15625 116.0625 -416.5625 C 92.070312 -385.96875 74.675781 -352.523438 63.875 -316.234375 C 53.082031 -279.953125 47.6875 -244.414062 47.6875 -209.625 C 47.6875 -191.03125 49.332031 -172.285156 52.625 -153.390625 C 55.925781 -134.503906 60.878906 -115.765625 67.484375 -97.171875 C 52.484375 -133.160156 44.984375 -171.25 44.984375 -211.4375 C 44.984375 -251.019531 51.582031 -290.300781 64.78125 -329.28125 C 77.976562 -368.269531 98.671875 -404.257812 126.859375 -437.25 C 162.847656 -470.238281 202.132812 -495.578125 244.71875 -513.265625 C 287.300781 -530.960938 328.390625 -539.8125 367.984375 -539.8125 C 380.578125 -539.8125 393.46875 -537.707031 406.65625 -533.5 C 419.851562 -529.300781 431.847656 -522.859375 442.640625 -514.171875 C 453.441406 -505.484375 462.289062 -494.238281 469.1875 -480.4375 C 476.09375 -466.644531 479.546875 -449.851562 479.546875 -430.0625 C 479.546875 -413.863281 475.644531 -394.066406 467.84375 -370.671875 C 460.050781 -347.285156 448.503906 -324.644531 433.203125 -302.75 C 417.910156 -280.851562 398.867188 -262.257812 376.078125 -246.96875 C 353.285156 -231.675781 326.894531 -224.03125 296.90625 -224.03125 L 267.21875 -224.03125 C 245.019531 -228.820312 224.773438 -234.367188 206.484375 -240.671875 C 188.191406 -246.972656 170.945312 -251.921875 154.75 -255.515625 C 152.351562 -245.921875 151.003906 -236.773438 150.703125 -228.078125 C 150.398438 -219.378906 150.25 -210.832031 150.25 -202.4375 C 150.25 -185.039062 152.195312 -168.09375 156.09375 -151.59375 C 160 -135.101562 166.148438 -119.957031 174.546875 -106.15625 C 182.941406 -92.363281 193.585938 -80.816406 206.484375 -71.515625 C 219.378906 -62.222656 235.125 -56.378906 253.71875 -53.984375 C 265.113281 -51.585938 275.007812 -50.238281 283.40625 -49.9375 C 291.800781 -49.632812 298.847656 -49.332031 304.546875 -49.03125 C 310.242188 -48.726562 314.441406 -47.828125 317.140625 -46.328125 C 319.835938 -44.828125 321.1875 -41.976562 321.1875 -37.78125 C 315.195312 -35.988281 309.050781 -34.789062 302.75 -34.1875 C 296.445312 -33.582031 290 -33.28125 283.40625 -33.28125 C 262.414062 -33.28125 243.519531 -36.726562 226.71875 -43.625 C 209.925781 -50.53125 195.535156 -58.484375 183.546875 -67.484375 C 197.335938 -53.679688 213.828125 -43.929688 233.015625 -38.234375 C 252.210938 -32.535156 271.109375 -29.6875 289.703125 -29.6875 C 299.898438 -29.6875 310.394531 -30.585938 321.1875 -32.390625 C 319.988281 -28.785156 319.390625 -26.6875 319.390625 -26.09375 C 319.390625 -22.488281 320.890625 -20.085938 323.890625 -18.890625 C 326.285156 -19.492188 330.484375 -21.144531 336.484375 -23.84375 C 342.484375 -26.539062 348.628906 -29.238281 354.921875 -31.9375 C 361.222656 -34.632812 367.375 -37.03125 373.375 -39.125 C 379.375 -41.226562 383.570312 -42.28125 385.96875 -42.28125 C 388.96875 -42.28125 391.664062 -41.832031 394.0625 -40.9375 C 396.46875 -40.039062 397.671875 -36.59375 397.671875 -30.59375 C 397.671875 -24.59375 395.570312 -17.394531 391.375 -9 C 387.175781 -0.601562 380.878906 7.789062 372.484375 16.1875 Z M 248.3125 -340.09375 L 268.109375 -336.484375 C 274.710938 -335.285156 280.710938 -334.6875 286.109375 -334.6875 C 292.109375 -334.6875 299.15625 -336.632812 307.25 -340.53125 C 315.34375 -344.4375 323.4375 -349.988281 331.53125 -357.1875 C 339.632812 -364.382812 346.832031 -373.378906 353.125 -384.171875 C 359.425781 -394.972656 364.078125 -407.269531 367.078125 -421.0625 L 368.875 -426.453125 C 360.476562 -426.453125 347.882812 -424.351562 331.09375 -420.15625 C 314.300781 -415.957031 296.90625 -410.410156 278.90625 -403.515625 C 260.914062 -396.617188 244.117188 -388.519531 228.515625 -379.21875 C 212.921875 -369.925781 202.128906 -359.878906 196.140625 -349.078125 C 205.128906 -347.285156 213.972656 -345.640625 222.671875 -344.140625 C 231.367188 -342.640625 239.914062 -341.289062 248.3125 -340.09375 Z M 206.9375 -273.515625 C 208.132812 -274.710938 208.878906 -276.507812 209.171875 -278.90625 C 209.472656 -281.300781 209.625 -283.101562 209.625 -284.3125 L 167.34375 -299.59375 L 162.84375 -287 Z M 181.734375 -69.28125 C 177.535156 -74.070312 173.335938 -78.867188 169.140625 -83.671875 C 165.546875 -87.867188 162.546875 -92.066406 160.140625 -96.265625 C 165.546875 -86.066406 172.742188 -77.070312 181.734375 -69.28125 Z M 181.734375 -69.28125" transform="translate(3668.436 1385.383)"/></g></g></g><g fill="#6B3E0A"><g><g><path d="M 362.578125 -9.890625 C 362.578125 -6.296875 361.078125 -3 358.078125 0 C 355.078125 3 351.628906 5.695312 347.734375 8.09375 C 343.835938 10.5 339.488281 12.597656 334.6875 14.390625 L 323.890625 18.890625 C 318.492188 16.492188 312.195312 14.546875 305 13.046875 C 297.800781 11.546875 290.148438 10.492188 282.046875 9.890625 C 273.953125 9.296875 266.003906 8.847656 258.203125 8.546875 C 250.410156 8.242188 243.515625 8.09375 237.515625 8.09375 C 209.328125 8.09375 181.285156 8.84375 153.390625 10.34375 C 125.503906 11.84375 97.46875 13.191406 69.28125 14.390625 C 75.875 14.992188 82.171875 15.296875 88.171875 15.296875 L 107.96875 15.296875 C 125.363281 15.296875 142.753906 14.992188 160.140625 14.390625 C 177.535156 13.796875 194.929688 13.5 212.328125 13.5 C 227.921875 13.5 243.363281 14.097656 258.65625 15.296875 C 273.957031 16.492188 289.40625 18.59375 305 21.59375 C 296 24.59375 282.050781 26.84375 263.15625 28.34375 C 244.269531 29.84375 224.476562 31.039062 203.78125 31.9375 C 183.09375 32.832031 163.148438 33.429688 143.953125 33.734375 C 124.753906 34.035156 109.757812 34.1875 98.96875 34.1875 L 91.765625 24.296875 C 90.566406 24.296875 89.515625 24.441406 88.609375 24.734375 C 87.710938 25.035156 86.664062 25.1875 85.46875 25.1875 C 83.070312 25.1875 80.671875 25.035156 78.265625 24.734375 C 75.867188 24.441406 73.171875 24.296875 70.171875 24.296875 L 63.875 24.296875 C 62.082031 24.296875 60.285156 24.894531 58.484375 26.09375 C 53.085938 26.09375 47.835938 25.789062 42.734375 25.1875 C 37.640625 24.59375 32.390625 24.296875 26.984375 24.296875 L 9 -64.78125 L 29.6875 -75.578125 C 53.082031 -91.171875 76.023438 -107.210938 98.515625 -123.703125 C 121.003906 -140.203125 141.992188 -158.195312 161.484375 -177.6875 C 180.984375 -197.1875 198.679688 -218.179688 214.578125 -240.671875 C 230.472656 -263.160156 243.519531 -288.203125 253.71875 -315.796875 L 251.015625 -321.1875 C 258.210938 -335.582031 263.3125 -348.925781 266.3125 -361.21875 C 269.3125 -373.519531 270.8125 -385.96875 270.8125 -398.5625 C 270.8125 -419.5625 266.007812 -433.660156 256.40625 -440.859375 C 246.8125 -448.054688 234.519531 -451.65625 219.53125 -451.65625 C 199.132812 -451.65625 181.4375 -446.101562 166.4375 -435 C 151.445312 -423.90625 138.851562 -410.863281 128.65625 -395.875 C 125.65625 -400.664062 121.304688 -403.8125 115.609375 -405.3125 C 109.910156 -406.8125 107.0625 -409.960938 107.0625 -414.765625 C 107.0625 -421.359375 110.507812 -427.953125 117.40625 -434.546875 C 124.3125 -441.148438 129.863281 -446.25 134.0625 -449.84375 L 128.65625 -457.953125 C 126.257812 -456.148438 121.460938 -453 114.265625 -448.5 C 107.066406 -444 99.566406 -439.195312 91.765625 -434.09375 C 83.972656 -429 76.625 -424.503906 69.71875 -420.609375 C 62.820312 -416.710938 58.175781 -414.765625 55.78125 -414.765625 C 48.582031 -414.765625 44.984375 -418.660156 44.984375 -426.453125 C 44.984375 -442.648438 50.679688 -458.394531 62.078125 -473.6875 C 73.472656 -488.988281 87.414062 -502.484375 103.90625 -514.171875 C 120.40625 -525.859375 138.25 -535.300781 157.4375 -542.5 C 176.632812 -549.695312 194.332031 -553.296875 210.53125 -553.296875 C 234.519531 -553.296875 256.859375 -550.597656 277.546875 -545.203125 C 298.242188 -539.804688 316.390625 -531.113281 331.984375 -519.125 C 347.578125 -507.132812 359.875 -491.691406 368.875 -472.796875 C 377.875 -453.898438 382.375 -431.253906 382.375 -404.859375 C 382.375 -371.867188 375.925781 -338.878906 363.03125 -305.890625 C 350.132812 -272.910156 333.1875 -241.722656 312.1875 -212.328125 C 291.195312 -182.941406 267.359375 -155.800781 240.671875 -130.90625 C 213.984375 -106.007812 186.84375 -85.164062 159.25 -68.375 C 165.25 -68.976562 172.59375 -69.578125 181.28125 -70.171875 C 189.976562 -70.773438 199.125 -71.375 208.71875 -71.96875 C 218.320312 -72.570312 227.472656 -73.023438 236.171875 -73.328125 C 244.867188 -73.628906 252.21875 -73.78125 258.21875 -73.78125 C 266.613281 -73.78125 275.609375 -72.726562 285.203125 -70.625 C 294.796875 -68.53125 302.894531 -64.78125 309.5 -59.375 L 307.703125 -53.984375 C 290.304688 -55.785156 273.210938 -56.6875 256.421875 -56.6875 C 248.617188 -56.6875 239.46875 -56.535156 228.96875 -56.234375 C 218.476562 -55.929688 207.832031 -55.476562 197.03125 -54.875 C 186.238281 -54.28125 175.59375 -53.679688 165.09375 -53.078125 C 154.59375 -52.484375 145.445312 -51.882812 137.65625 -51.28125 L 137.65625 -50.390625 C 143.65625 -50.390625 151.300781 -50.535156 160.59375 -50.828125 C 169.894531 -51.128906 179.492188 -51.429688 189.390625 -51.734375 C 199.285156 -52.035156 208.726562 -52.332031 217.71875 -52.625 C 226.71875 -52.925781 234.519531 -53.078125 241.125 -53.078125 C 251.914062 -53.078125 262.554688 -52.628906 273.046875 -51.734375 C 283.546875 -50.835938 294.195312 -49.785156 305 -48.578125 C 303.195312 -45.578125 302.296875 -43.179688 302.296875 -41.390625 C 302.296875 -36.585938 305.441406 -33.585938 311.734375 -32.390625 C 318.035156 -31.191406 324.9375 -29.84375 332.4375 -28.34375 C 339.9375 -26.84375 346.832031 -24.890625 353.125 -22.484375 C 359.425781 -20.085938 362.578125 -15.890625 362.578125 -9.890625 Z M 34.1875 -84.578125 C 49.78125 -94.171875 67.320312 -107.210938 86.8125 -123.703125 C 106.3125 -140.203125 125.804688 -158.5 145.296875 -178.59375 C 164.796875 -198.6875 183.238281 -220.128906 200.625 -242.921875 C 218.019531 -265.710938 232.71875 -288.503906 244.71875 -311.296875 C 235.71875 -291.503906 223.269531 -270.210938 207.375 -247.421875 C 191.488281 -224.628906 173.796875 -202.582031 154.296875 -181.28125 C 134.804688 -159.988281 114.5625 -140.644531 93.5625 -123.25 C 72.570312 -105.863281 52.78125 -92.972656 34.1875 -84.578125 Z M 183.546875 -183.546875 C 162.546875 -162.546875 140.945312 -142.445312 118.75 -123.25 C 96.5625 -104.0625 72.875 -86.367188 47.6875 -70.171875 L 52.1875 -69.28125 C 77.375 -84.875 100.613281 -102.566406 121.90625 -122.359375 C 143.195312 -142.148438 163.742188 -162.546875 183.546875 -183.546875 Z M 152.046875 -80.078125 C 163.441406 -85.472656 174.835938 -94.769531 186.234375 -107.96875 L 133.15625 -71.078125 C 137.957031 -73.472656 144.253906 -76.472656 152.046875 -80.078125 Z M 26.984375 29.6875 C 28.191406 29.6875 31.492188 29.835938 36.890625 30.140625 C 42.285156 30.441406 47.984375 30.890625 53.984375 31.484375 C 59.984375 32.085938 65.53125 32.835938 70.625 33.734375 C 75.726562 34.640625 78.878906 35.390625 80.078125 35.984375 L 27.890625 32.390625 Z M 18.890625 -51.28125 L 40.484375 -62.078125 L 39.59375 -64.78125 C 35.988281 -61.78125 32.085938 -59.679688 27.890625 -58.484375 C 23.691406 -57.285156 19.789062 -55.785156 16.1875 -53.984375 L 16.1875 -51.28125 Z M 18.890625 -51.28125" transform="translate(1723.336 2374.788)"/></g></g></g><g fill="#6B3E0A"><g><g><path d="M 136.75 -569.5 C 176.34375 -569.5 214.429688 -566.046875 251.015625 -559.140625 C 287.609375 -552.242188 319.847656 -539.953125 347.734375 -522.265625 C 375.628906 -504.578125 397.820312 -480.738281 414.3125 -450.75 C 430.8125 -420.757812 439.0625 -382.671875 439.0625 -336.484375 C 439.0625 -292.097656 434.257812 -247.710938 424.65625 -203.328125 C 415.664062 -161.941406 401.269531 -122.957031 381.46875 -86.375 C 401.269531 -121.15625 415.96875 -157.441406 425.5625 -195.234375 C 436.351562 -236.617188 441.75 -278.90625 441.75 -322.09375 C 441.75 -359.28125 438.148438 -391.21875 430.953125 -417.90625 C 423.753906 -444.601562 412.207031 -467.394531 396.3125 -486.28125 C 380.425781 -505.164062 360.035156 -520.753906 335.140625 -533.046875 C 310.242188 -545.347656 280.101562 -555.695312 244.71875 -564.09375 C 230.925781 -567.09375 217.28125 -570.09375 203.78125 -573.09375 C 190.289062 -576.09375 176.046875 -577.59375 161.046875 -577.59375 C 175.441406 -581.789062 191.035156 -583.890625 207.828125 -583.890625 C 231.222656 -583.890625 255.066406 -580.890625 279.359375 -574.890625 C 303.648438 -568.890625 326.441406 -560.039062 347.734375 -548.34375 C 369.023438 -536.65625 388.066406 -521.96875 404.859375 -504.28125 C 421.660156 -486.59375 433.957031 -466.050781 441.75 -442.65625 L 430.953125 -439.953125 C 439.347656 -422.554688 445.34375 -404.5625 448.9375 -385.96875 C 452.539062 -367.375 454.34375 -348.484375 454.34375 -329.296875 C 454.34375 -305.898438 452.394531 -280.253906 448.5 -252.359375 C 444.601562 -224.472656 438.457031 -196.429688 430.0625 -168.234375 C 421.664062 -140.046875 410.867188 -112.753906 397.671875 -86.359375 C 384.472656 -59.972656 368.726562 -36.734375 350.4375 -16.640625 C 332.144531 3.453125 311.148438 19.644531 287.453125 31.9375 C 263.765625 44.238281 237.222656 50.390625 207.828125 50.390625 C 204.828125 50.390625 201.523438 50.238281 197.921875 49.9375 C 194.328125 49.632812 191.03125 49.179688 188.03125 48.578125 L 190.734375 53.984375 C 194.335938 54.578125 198.085938 55.023438 201.984375 55.328125 C 205.878906 55.628906 209.628906 55.78125 213.234375 55.78125 C 242.617188 55.78125 269.15625 49.628906 292.84375 37.328125 C 316.539062 25.035156 337.535156 8.695312 355.828125 -11.6875 C 374.128906 -32.082031 389.875 -55.328125 403.0625 -81.421875 C 416.257812 -107.515625 427.054688 -134.804688 435.453125 -163.296875 C 443.847656 -191.785156 450.144531 -220.125 454.34375 -248.3125 C 458.539062 -276.507812 460.640625 -302.601562 460.640625 -326.59375 C 460.640625 -356.582031 457.039062 -385.972656 449.84375 -414.765625 C 454.050781 -399.171875 457.503906 -383.425781 460.203125 -367.53125 C 462.898438 -351.632812 464.25 -335.890625 464.25 -320.296875 C 464.25 -294.503906 462.148438 -267.210938 457.953125 -238.421875 C 453.753906 -209.628906 447.304688 -181.285156 438.609375 -153.390625 C 429.910156 -125.503906 418.660156 -98.664062 404.859375 -72.875 C 391.066406 -47.082031 374.570312 -24.4375 355.375 -4.9375 C 336.1875 14.550781 313.992188 30.140625 288.796875 41.828125 C 263.609375 53.523438 235.421875 59.375 204.234375 59.375 C 180.242188 59.375 159.550781 53.972656 142.15625 43.171875 C 124.757812 32.378906 110.210938 18.132812 98.515625 0.4375 C 86.816406 -17.25 77.367188 -37.335938 70.171875 -59.828125 C 62.972656 -82.316406 57.570312 -105.40625 53.96875 -129.09375 C 50.375 -152.789062 47.976562 -175.882812 46.78125 -198.375 C 45.582031 -220.875 44.984375 -240.820312 44.984375 -258.21875 C 44.984375 -297.800781 50.53125 -336.1875 61.625 -373.375 C 72.726562 -410.5625 89.675781 -445.351562 112.46875 -477.75 C 113.0625 -474.144531 114.554688 -471.890625 116.953125 -470.984375 C 119.359375 -470.085938 121.609375 -469.335938 123.703125 -468.734375 C 125.804688 -468.140625 127.753906 -467.390625 129.546875 -466.484375 C 131.347656 -465.585938 132.25 -463.640625 132.25 -460.640625 C 132.25 -458.847656 131.050781 -455.101562 128.65625 -449.40625 C 126.257812 -443.707031 123.5625 -437.40625 120.5625 -430.5 C 117.5625 -423.601562 114.710938 -417.15625 112.015625 -411.15625 C 109.316406 -405.164062 107.664062 -401.269531 107.0625 -399.46875 L 115.15625 -396.765625 C 117.5625 -400.960938 120.710938 -406.0625 124.609375 -412.0625 C 128.503906 -418.0625 133 -423.757812 138.09375 -429.15625 C 143.195312 -434.550781 148.597656 -439.046875 154.296875 -442.640625 C 159.992188 -446.242188 165.539062 -448.046875 170.9375 -448.046875 C 178.738281 -448.046875 183.535156 -446.546875 185.328125 -443.546875 C 187.128906 -440.554688 188.03125 -435.757812 188.03125 -429.15625 C 188.03125 -421.957031 186.378906 -411.609375 183.078125 -398.109375 C 179.785156 -384.617188 176.039062 -369.328125 171.84375 -352.234375 C 167.644531 -335.140625 163.894531 -317.296875 160.59375 -298.703125 C 157.300781 -280.109375 155.65625 -262.414062 155.65625 -245.625 C 155.65625 -240.21875 155.953125 -231.367188 156.546875 -219.078125 C 157.148438 -206.785156 158.203125 -193.140625 159.703125 -178.140625 C 161.203125 -163.148438 163.300781 -147.707031 166 -131.8125 C 168.695312 -115.914062 172.144531 -101.367188 176.34375 -88.171875 C 180.539062 -74.972656 185.785156 -64.175781 192.078125 -55.78125 C 198.378906 -47.382812 205.726562 -43.1875 214.125 -43.1875 C 230.320312 -43.1875 245.019531 -48.429688 258.21875 -58.921875 C 271.414062 -69.421875 283.410156 -82.914062 294.203125 -99.40625 C 304.992188 -115.90625 314.289062 -134.648438 322.09375 -155.640625 C 329.894531 -176.640625 336.492188 -197.484375 341.890625 -218.171875 C 347.285156 -238.867188 351.332031 -258.515625 354.03125 -277.109375 C 356.726562 -295.703125 358.078125 -311 358.078125 -323 C 358.078125 -345.1875 356.878906 -364.828125 354.484375 -381.921875 C 352.085938 -399.015625 347.140625 -413.859375 339.640625 -426.453125 C 332.140625 -439.054688 321.191406 -449.40625 306.796875 -457.5 C 292.398438 -465.59375 273.507812 -471.441406 250.125 -475.046875 C 247.71875 -475.640625 242.164062 -476.535156 233.46875 -477.734375 C 224.769531 -478.941406 215.769531 -480.59375 206.46875 -482.6875 C 197.175781 -484.789062 188.78125 -487.191406 181.28125 -489.890625 C 173.789062 -492.585938 170.046875 -495.4375 170.046875 -498.4375 C 170.046875 -500.238281 170.644531 -502.335938 171.84375 -504.734375 C 180.84375 -504.734375 191.335938 -504.132812 203.328125 -502.9375 C 215.328125 -501.738281 227.773438 -499.785156 240.671875 -497.078125 C 253.566406 -494.378906 266.015625 -491.234375 278.015625 -487.640625 C 285.804688 -485.242188 293.300781 -482.546875 300.5 -479.546875 C 293.90625 -482.546875 287.007812 -485.242188 279.8125 -487.640625 C 267.8125 -491.835938 255.515625 -495.4375 242.921875 -498.4375 C 230.328125 -501.4375 218.179688 -503.6875 206.484375 -505.1875 C 194.785156 -506.6875 184.140625 -507.4375 174.546875 -507.4375 L 170.9375 -523.609375 L 166.4375 -523.609375 C 156.25 -523.609375 146.351562 -521.804688 136.75 -518.203125 C 127.15625 -514.609375 117.257812 -512.8125 107.0625 -512.8125 C 104.664062 -512.8125 102.265625 -513.5625 99.859375 -515.0625 C 97.460938 -516.5625 96.265625 -518.8125 96.265625 -521.8125 C 96.265625 -526.007812 97.765625 -530.65625 100.765625 -535.75 C 103.765625 -540.851562 107.210938 -545.503906 111.109375 -549.703125 C 115.015625 -553.898438 119.363281 -557.796875 124.15625 -561.390625 C 128.957031 -564.992188 133.15625 -567.695312 136.75 -569.5 Z M 368.875 -246.515625 C 375.476562 -272.910156 379.976562 -298.703125 382.375 -323.890625 C 382.976562 -326.890625 383.425781 -330.035156 383.71875 -333.328125 C 384.019531 -336.628906 384.171875 -339.78125 384.171875 -342.78125 C 384.171875 -358.375 381.472656 -373.367188 376.078125 -387.765625 C 370.679688 -402.160156 364.679688 -415.957031 358.078125 -429.15625 C 370.671875 -397.363281 376.96875 -364.078125 376.96875 -329.296875 C 376.96875 -302.296875 373.972656 -275.300781 367.984375 -248.3125 C 361.984375 -221.925781 354.484375 -196.4375 345.484375 -171.84375 C 355.078125 -196.4375 362.875 -221.328125 368.875 -246.515625 Z M 368.875 -246.515625" transform="translate(2132.703 2374.788)"/></g></g></g><g fill="#6B3E0A"><g><g><path d="M 362.578125 -9.890625 C 362.578125 -6.296875 361.078125 -3 358.078125 0 C 355.078125 3 351.628906 5.695312 347.734375 8.09375 C 343.835938 10.5 339.488281 12.597656 334.6875 14.390625 L 323.890625 18.890625 C 318.492188 16.492188 312.195312 14.546875 305 13.046875 C 297.800781 11.546875 290.148438 10.492188 282.046875 9.890625 C 273.953125 9.296875 266.003906 8.847656 258.203125 8.546875 C 250.410156 8.242188 243.515625 8.09375 237.515625 8.09375 C 209.328125 8.09375 181.285156 8.84375 153.390625 10.34375 C 125.503906 11.84375 97.46875 13.191406 69.28125 14.390625 C 75.875 14.992188 82.171875 15.296875 88.171875 15.296875 L 107.96875 15.296875 C 125.363281 15.296875 142.753906 14.992188 160.140625 14.390625 C 177.535156 13.796875 194.929688 13.5 212.328125 13.5 C 227.921875 13.5 243.363281 14.097656 258.65625 15.296875 C 273.957031 16.492188 289.40625 18.59375 305 21.59375 C 296 24.59375 282.050781 26.84375 263.15625 28.34375 C 244.269531 29.84375 224.476562 31.039062 203.78125 31.9375 C 183.09375 32.832031 163.148438 33.429688 143.953125 33.734375 C 124.753906 34.035156 109.757812 34.1875 98.96875 34.1875 L 91.765625 24.296875 C 90.566406 24.296875 89.515625 24.441406 88.609375 24.734375 C 87.710938 25.035156 86.664062 25.1875 85.46875 25.1875 C 83.070312 25.1875 80.671875 25.035156 78.265625 24.734375 C 75.867188 24.441406 73.171875 24.296875 70.171875 24.296875 L 63.875 24.296875 C 62.082031 24.296875 60.285156 24.894531 58.484375 26.09375 C 53.085938 26.09375 47.835938 25.789062 42.734375 25.1875 C 37.640625 24.59375 32.390625 24.296875 26.984375 24.296875 L 9 -64.78125 L 29.6875 -75.578125 C 53.082031 -91.171875 76.023438 -107.210938 98.515625 -123.703125 C 121.003906 -140.203125 141.992188 -158.195312 161.484375 -177.6875 C 180.984375 -197.1875 198.679688 -218.179688 214.578125 -240.671875 C 230.472656 -263.160156 243.519531 -288.203125 253.71875 -315.796875 L 251.015625 -321.1875 C 258.210938 -335.582031 263.3125 -348.925781 266.3125 -361.21875 C 269.3125 -373.519531 270.8125 -385.96875 270.8125 -398.5625 C 270.8125 -419.5625 266.007812 -433.660156 256.40625 -440.859375 C 246.8125 -448.054688 234.519531 -451.65625 219.53125 -451.65625 C 199.132812 -451.65625 181.4375 -446.101562 166.4375 -435 C 151.445312 -423.90625 138.851562 -410.863281 128.65625 -395.875 C 125.65625 -400.664062 121.304688 -403.8125 115.609375 -405.3125 C 109.910156 -406.8125 107.0625 -409.960938 107.0625 -414.765625 C 107.0625 -421.359375 110.507812 -427.953125 117.40625 -434.546875 C 124.3125 -441.148438 129.863281 -446.25 134.0625 -449.84375 L 128.65625 -457.953125 C 126.257812 -456.148438 121.460938 -453 114.265625 -448.5 C 107.066406 -444 99.566406 -439.195312 91.765625 -434.09375 C 83.972656 -429 76.625 -424.503906 69.71875 -420.609375 C 62.820312 -416.710938 58.175781 -414.765625 55.78125 -414.765625 C 48.582031 -414.765625 44.984375 -418.660156 44.984375 -426.453125 C 44.984375 -442.648438 50.679688 -458.394531 62.078125 -473.6875 C 73.472656 -488.988281 87.414062 -502.484375 103.90625 -514.171875 C 120.40625 -525.859375 138.25 -535.300781 157.4375 -542.5 C 176.632812 -549.695312 194.332031 -553.296875 210.53125 -553.296875 C 234.519531 -553.296875 256.859375 -550.597656 277.546875 -545.203125 C 298.242188 -539.804688 316.390625 -531.113281 331.984375 -519.125 C 347.578125 -507.132812 359.875 -491.691406 368.875 -472.796875 C 377.875 -453.898438 382.375 -431.253906 382.375 -404.859375 C 382.375 -371.867188 375.925781 -338.878906 363.03125 -305.890625 C 350.132812 -272.910156 333.1875 -241.722656 312.1875 -212.328125 C 291.195312 -182.941406 267.359375 -155.800781 240.671875 -130.90625 C 213.984375 -106.007812 186.84375 -85.164062 159.25 -68.375 C 165.25 -68.976562 172.59375 -69.578125 181.28125 -70.171875 C 189.976562 -70.773438 199.125 -71.375 208.71875 -71.96875 C 218.320312 -72.570312 227.472656 -73.023438 236.171875 -73.328125 C 244.867188 -73.628906 252.21875 -73.78125 258.21875 -73.78125 C 266.613281 -73.78125 275.609375 -72.726562 285.203125 -70.625 C 294.796875 -68.53125 302.894531 -64.78125 309.5 -59.375 L 307.703125 -53.984375 C 290.304688 -55.785156 273.210938 -56.6875 256.421875 -56.6875 C 248.617188 -56.6875 239.46875 -56.535156 228.96875 -56.234375 C 218.476562 -55.929688 207.832031 -55.476562 197.03125 -54.875 C 186.238281 -54.28125 175.59375 -53.679688 165.09375 -53.078125 C 154.59375 -52.484375 145.445312 -51.882812 137.65625 -51.28125 L 137.65625 -50.390625 C 143.65625 -50.390625 151.300781 -50.535156 160.59375 -50.828125 C 169.894531 -51.128906 179.492188 -51.429688 189.390625 -51.734375 C 199.285156 -52.035156 208.726562 -52.332031 217.71875 -52.625 C 226.71875 -52.925781 234.519531 -53.078125 241.125 -53.078125 C 251.914062 -53.078125 262.554688 -52.628906 273.046875 -51.734375 C 283.546875 -50.835938 294.195312 -49.785156 305 -48.578125 C 303.195312 -45.578125 302.296875 -43.179688 302.296875 -41.390625 C 302.296875 -36.585938 305.441406 -33.585938 311.734375 -32.390625 C 318.035156 -31.191406 324.9375 -29.84375 332.4375 -28.34375 C 339.9375 -26.84375 346.832031 -24.890625 353.125 -22.484375 C 359.425781 -20.085938 362.578125 -15.890625 362.578125 -9.890625 Z M 34.1875 -84.578125 C 49.78125 -94.171875 67.320312 -107.210938 86.8125 -123.703125 C 106.3125 -140.203125 125.804688 -158.5 145.296875 -178.59375 C 164.796875 -198.6875 183.238281 -220.128906 200.625 -242.921875 C 218.019531 -265.710938 232.71875 -288.503906 244.71875 -311.296875 C 235.71875 -291.503906 223.269531 -270.210938 207.375 -247.421875 C 191.488281 -224.628906 173.796875 -202.582031 154.296875 -181.28125 C 134.804688 -159.988281 114.5625 -140.644531 93.5625 -123.25 C 72.570312 -105.863281 52.78125 -92.972656 34.1875 -84.578125 Z M 183.546875 -183.546875 C 162.546875 -162.546875 140.945312 -142.445312 118.75 -123.25 C 96.5625 -104.0625 72.875 -86.367188 47.6875 -70.171875 L 52.1875 -69.28125 C 77.375 -84.875 100.613281 -102.566406 121.90625 -122.359375 C 143.195312 -142.148438 163.742188 -162.546875 183.546875 -183.546875 Z M 152.046875 -80.078125 C 163.441406 -85.472656 174.835938 -94.769531 186.234375 -107.96875 L 133.15625 -71.078125 C 137.957031 -73.472656 144.253906 -76.472656 152.046875 -80.078125 Z M 26.984375 29.6875 C 28.191406 29.6875 31.492188 29.835938 36.890625 30.140625 C 42.285156 30.441406 47.984375 30.890625 53.984375 31.484375 C 59.984375 32.085938 65.53125 32.835938 70.625 33.734375 C 75.726562 34.640625 78.878906 35.390625 80.078125 35.984375 L 27.890625 32.390625 Z M 18.890625 -51.28125 L 40.484375 -62.078125 L 39.59375 -64.78125 C 35.988281 -61.78125 32.085938 -59.679688 27.890625 -58.484375 C 23.691406 -57.285156 19.789062 -55.785156 16.1875 -53.984375 L 16.1875 -51.28125 Z M 18.890625 -51.28125" transform="translate(2641.937 2374.788)"/></g></g></g><g fill="#6B3E0A"><g><g><path d="M 362.578125 -9.890625 C 362.578125 -6.296875 361.078125 -3 358.078125 0 C 355.078125 3 351.628906 5.695312 347.734375 8.09375 C 343.835938 10.5 339.488281 12.597656 334.6875 14.390625 L 323.890625 18.890625 C 318.492188 16.492188 312.195312 14.546875 305 13.046875 C 297.800781 11.546875 290.148438 10.492188 282.046875 9.890625 C 273.953125 9.296875 266.003906 8.847656 258.203125 8.546875 C 250.410156 8.242188 243.515625 8.09375 237.515625 8.09375 C 209.328125 8.09375 181.285156 8.84375 153.390625 10.34375 C 125.503906 11.84375 97.46875 13.191406 69.28125 14.390625 C 75.875 14.992188 82.171875 15.296875 88.171875 15.296875 L 107.96875 15.296875 C 125.363281 15.296875 142.753906 14.992188 160.140625 14.390625 C 177.535156 13.796875 194.929688 13.5 212.328125 13.5 C 227.921875 13.5 243.363281 14.097656 258.65625 15.296875 C 273.957031 16.492188 289.40625 18.59375 305 21.59375 C 296 24.59375 282.050781 26.84375 263.15625 28.34375 C 244.269531 29.84375 224.476562 31.039062 203.78125 31.9375 C 183.09375 32.832031 163.148438 33.429688 143.953125 33.734375 C 124.753906 34.035156 109.757812 34.1875 98.96875 34.1875 L 91.765625 24.296875 C 90.566406 24.296875 89.515625 24.441406 88.609375 24.734375 C 87.710938 25.035156 86.664062 25.1875 85.46875 25.1875 C 83.070312 25.1875 80.671875 25.035156 78.265625 24.734375 C 75.867188 24.441406 73.171875 24.296875 70.171875 24.296875 L 63.875 24.296875 C 62.082031 24.296875 60.285156 24.894531 58.484375 26.09375 C 53.085938 26.09375 47.835938 25.789062 42.734375 25.1875 C 37.640625 24.59375 32.390625 24.296875 26.984375 24.296875 L 9 -64.78125 L 29.6875 -75.578125 C 53.082031 -91.171875 76.023438 -107.210938 98.515625 -123.703125 C 121.003906 -140.203125 141.992188 -158.195312 161.484375 -177.6875 C 180.984375 -197.1875 198.679688 -218.179688 214.578125 -240.671875 C 230.472656 -263.160156 243.519531 -288.203125 253.71875 -315.796875 L 251.015625 -321.1875 C 258.210938 -335.582031 263.3125 -348.925781 266.3125 -361.21875 C 269.3125 -373.519531 270.8125 -385.96875 270.8125 -398.5625 C 270.8125 -419.5625 266.007812 -433.660156 256.40625 -440.859375 C 246.8125 -448.054688 234.519531 -451.65625 219.53125 -451.65625 C 199.132812 -451.65625 181.4375 -446.101562 166.4375 -435 C 151.445312 -423.90625 138.851562 -410.863281 128.65625 -395.875 C 125.65625 -400.664062 121.304688 -403.8125 115.609375 -405.3125 C 109.910156 -406.8125 107.0625 -409.960938 107.0625 -414.765625 C 107.0625 -421.359375 110.507812 -427.953125 117.40625 -434.546875 C 124.3125 -441.148438 129.863281 -446.25 134.0625 -449.84375 L 128.65625 -457.953125 C 126.257812 -456.148438 121.460938 -453 114.265625 -448.5 C 107.066406 -444 99.566406 -439.195312 91.765625 -434.09375 C 83.972656 -429 76.625 -424.503906 69.71875 -420.609375 C 62.820312 -416.710938 58.175781 -414.765625 55.78125 -414.765625 C 48.582031 -414.765625 44.984375 -418.660156 44.984375 -426.453125 C 44.984375 -442.648438 50.679688 -458.394531 62.078125 -473.6875 C 73.472656 -488.988281 87.414062 -502.484375 103.90625 -514.171875 C 120.40625 -525.859375 138.25 -535.300781 157.4375 -542.5 C 176.632812 -549.695312 194.332031 -553.296875 210.53125 -553.296875 C 234.519531 -553.296875 256.859375 -550.597656 277.546875 -545.203125 C 298.242188 -539.804688 316.390625 -531.113281 331.984375 -519.125 C 347.578125 -507.132812 359.875 -491.691406 368.875 -472.796875 C 377.875 -453.898438 382.375 -431.253906 382.375 -404.859375 C 382.375 -371.867188 375.925781 -338.878906 363.03125 -305.890625 C 350.132812 -272.910156 333.1875 -241.722656 312.1875 -212.328125 C 291.195312 -182.941406 267.359375 -155.800781 240.671875 -130.90625 C 213.984375 -106.007812 186.84375 -85.164062 159.25 -68.375 C 165.25 -68.976562 172.59375 -69.578125 181.28125 -70.171875 C 189.976562 -70.773438 199.125 -71.375 208.71875 -71.96875 C 218.320312 -72.570312 227.472656 -73.023438 236.171875 -73.328125 C 244.867188 -73.628906 252.21875 -73.78125 258.21875 -73.78125 C 266.613281 -73.78125 275.609375 -72.726562 285.203125 -70.625 C 294.796875 -68.53125 302.894531 -64.78125 309.5 -59.375 L 307.703125 -53.984375 C 290.304688 -55.785156 273.210938 -56.6875 256.421875 -56.6875 C 248.617188 -56.6875 239.46875 -56.535156 228.96875 -56.234375 C 218.476562 -55.929688 207.832031 -55.476562 197.03125 -54.875 C 186.238281 -54.28125 175.59375 -53.679688 165.09375 -53.078125 C 154.59375 -52.484375 145.445312 -51.882812 137.65625 -51.28125 L 137.65625 -50.390625 C 143.65625 -50.390625 151.300781 -50.535156 160.59375 -50.828125 C 169.894531 -51.128906 179.492188 -51.429688 189.390625 -51.734375 C 199.285156 -52.035156 208.726562 -52.332031 217.71875 -52.625 C 226.71875 -52.925781 234.519531 -53.078125 241.125 -53.078125 C 251.914062 -53.078125 262.554688 -52.628906 273.046875 -51.734375 C 283.546875 -50.835938 294.195312 -49.785156 305 -48.578125 C 303.195312 -45.578125 302.296875 -43.179688 302.296875 -41.390625 C 302.296875 -36.585938 305.441406 -33.585938 311.734375 -32.390625 C 318.035156 -31.191406 324.9375 -29.84375 332.4375 -28.34375 C 339.9375 -26.84375 346.832031 -24.890625 353.125 -22.484375 C 359.425781 -20.085938 362.578125 -15.890625 362.578125 -9.890625 Z M 34.1875 -84.578125 C 49.78125 -94.171875 67.320312 -107.210938 86.8125 -123.703125 C 106.3125 -140.203125 125.804688 -158.5 145.296875 -178.59375 C 164.796875 -198.6875 183.238281 -220.128906 200.625 -242.921875 C 218.019531 -265.710938 232.71875 -288.503906 244.71875 -311.296875 C 235.71875 -291.503906 223.269531 -270.210938 207.375 -247.421875 C 191.488281 -224.628906 173.796875 -202.582031 154.296875 -181.28125 C 134.804688 -159.988281 114.5625 -140.644531 93.5625 -123.25 C 72.570312 -105.863281 52.78125 -92.972656 34.1875 -84.578125 Z M 183.546875 -183.546875 C 162.546875 -162.546875 140.945312 -142.445312 118.75 -123.25 C 96.5625 -104.0625 72.875 -86.367188 47.6875 -70.171875 L 52.1875 -69.28125 C 77.375 -84.875 100.613281 -102.566406 121.90625 -122.359375 C 143.195312 -142.148438 163.742188 -162.546875 183.546875 -183.546875 Z M 152.046875 -80.078125 C 163.441406 -85.472656 174.835938 -94.769531 186.234375 -107.96875 L 133.15625 -71.078125 C 137.957031 -73.472656 144.253906 -76.472656 152.046875 -80.078125 Z M 26.984375 29.6875 C 28.191406 29.6875 31.492188 29.835938 36.890625 30.140625 C 42.285156 30.441406 47.984375 30.890625 53.984375 31.484375 C 59.984375 32.085938 65.53125 32.835938 70.625 33.734375 C 75.726562 34.640625 78.878906 35.390625 80.078125 35.984375 L 27.890625 32.390625 Z M 18.890625 -51.28125 L 40.484375 -62.078125 L 39.59375 -64.78125 C 35.988281 -61.78125 32.085938 -59.679688 27.890625 -58.484375 C 23.691406 -57.285156 19.789062 -55.785156 16.1875 -53.984375 L 16.1875 -51.28125 Z M 18.890625 -51.28125" transform="translate(3051.304 2374.788)"/></g></g></g><g clip-path="url(#a)"><g clip-path="url(#b)"><path fill="#136026" d="M 3555.59375 771.40625 L 3429.859375 -32.007812 L 2812.144531 64.597656 L 2937.875 868.011719 Z M 3555.59375 771.40625"/></g></g><g clip-path="url(#c)"><g clip-path="url(#d)"><path fill="#69AD7A" d="M-518.4 -259.2H5702.400000000001V2851.2000000000003H-518.4z"/></g></g></svg>