<svg xmlns="http://www.w3.org/2000/svg" width="375" viewBox="0 0 375 375" height="375" version="1.0"><defs><clipPath id="a"><path d="M 68.320312 0 L 306.820312 0 L 306.820312 239 L 68.320312 239 Z M 68.320312 0"/></clipPath></defs><path fill="#FFF" d="M-37.5 -37.5H412.5V412.5H-37.5z"/><path fill="#FFF" d="M-37.5 -37.5H412.5V412.5H-37.5z"/><path fill="#FFF" d="M-37.5 -37.5H412.5V412.5H-37.5z"/><g clip-path="url(#a)"><path d="M 187.554688 -0.0078125 C 197.574219 -0.0078125 206.011719 12.277344 215.527344 14.824219 C 225.121094 17.394531 238.570312 10.996094 247.171875 15.957031 C 255.703125 20.878906 256.890625 35.699219 263.976562 42.777344 C 271.058594 49.859375 285.890625 51.046875 290.8125 59.574219 C 295.777344 68.167969 289.375 81.609375 291.945312 91.199219 C 294.496094 100.707031 306.789062 109.140625 306.789062 119.15625 C 306.789062 129.171875 294.496094 137.601562 291.945312 147.113281 C 289.375 156.699219 295.777344 170.140625 290.8125 178.738281 C 285.890625 187.261719 271.058594 188.453125 263.976562 195.53125 C 256.890625 202.613281 255.703125 217.433594 247.171875 222.355469 C 238.570312 227.316406 225.121094 220.917969 215.527344 223.488281 C 206.011719 226.035156 197.574219 238.320312 187.554688 238.320312 C 177.53125 238.320312 169.09375 226.035156 159.582031 223.488281 C 149.988281 220.917969 136.539062 227.316406 127.9375 222.355469 C 119.40625 217.433594 118.21875 202.613281 111.132812 195.53125 C 104.046875 188.453125 89.21875 187.261719 84.292969 178.738281 C 79.328125 170.140625 85.730469 156.699219 83.160156 147.113281 C 80.613281 137.605469 68.320312 129.171875 68.320312 119.15625 C 68.320312 109.140625 80.613281 100.707031 83.160156 91.199219 C 85.730469 81.613281 79.328125 68.167969 84.292969 59.574219 C 89.21875 51.046875 104.046875 49.859375 111.132812 42.777344 C 118.214844 35.699219 119.40625 20.878906 127.9375 15.957031 C 136.539062 10.996094 149.988281 17.394531 159.582031 14.824219 C 169.09375 12.277344 177.535156 -0.0078125 187.554688 -0.0078125 Z M 187.554688 -0.0078125"/></g><path fill="#FFF" d="M 253.207031 53.539062 C 270.621094 70.941406 280.402344 94.542969 280.402344 119.15625 C 280.402344 143.769531 270.621094 167.371094 253.207031 184.773438 C 235.796875 202.175781 212.179688 211.949219 187.554688 211.949219 C 162.925781 211.949219 139.3125 202.171875 121.898438 184.773438 C 104.488281 167.371094 94.707031 143.769531 94.707031 119.15625 C 94.707031 94.542969 104.488281 70.941406 121.898438 53.539062 C 139.3125 36.136719 162.925781 26.363281 187.554688 26.363281 C 212.179688 26.363281 235.796875 36.140625 253.207031 53.539062 Z M 187.554688 34.953125 C 165.207031 34.953125 143.777344 43.824219 127.976562 59.613281 C 112.179688 75.40625 103.300781 96.824219 103.300781 119.15625 C 103.300781 141.488281 112.175781 162.90625 127.976562 178.695312 C 143.777344 194.484375 165.210938 203.359375 187.554688 203.359375 C 209.898438 203.359375 231.332031 194.488281 247.128906 178.695312 C 262.929688 162.90625 271.808594 141.488281 271.808594 119.15625 C 271.808594 96.824219 262.929688 75.40625 247.128906 59.613281 C 231.328125 43.824219 209.898438 34.953125 187.554688 34.953125 Z M 187.554688 34.953125"/><path fill="#FFF" d="M 187.554688 38.035156 L 189.042969 41.050781 L 192.371094 41.535156 L 189.960938 43.882812 L 190.53125 47.195312 L 187.554688 45.628906 L 184.574219 47.195312 L 185.144531 43.882812 L 182.738281 41.535156 L 186.066406 41.050781 Z M 187.554688 38.035156"/><path fill="#FFF" d="M 201.648438 39.265625 L 202.589844 42.496094 L 205.785156 43.550781 L 203.007812 45.441406 L 202.988281 48.804688 L 200.328125 46.75 L 197.125 47.769531 L 198.257812 44.605469 L 196.296875 41.878906 L 199.660156 41.980469 Z M 201.648438 39.265625"/><path fill="#FFF" d="M 215.316406 42.929688 L 215.679688 46.269531 L 218.644531 47.863281 L 215.578125 49.246094 L 214.976562 52.550781 L 212.714844 50.066406 L 209.382812 50.515625 L 211.050781 47.597656 L 209.589844 44.570312 L 212.882812 45.253906 Z M 215.316406 42.929688"/><path fill="#FFF" d="M 228.136719 48.90625 L 227.917969 52.257812 L 230.558594 54.34375 L 227.300781 55.167969 L 226.132812 58.324219 L 224.335938 55.480469 L 220.976562 55.347656 L 223.128906 52.761719 L 222.214844 49.527344 L 225.339844 50.769531 Z M 228.136719 48.90625"/><path fill="#FFF" d="M 239.726562 57.015625 L 238.929688 60.28125 L 241.167969 62.789062 L 237.8125 63.039062 L 236.117188 65.945312 L 234.839844 62.832031 L 231.554688 62.117188 L 234.121094 59.945312 L 233.785156 56.597656 L 236.648438 58.367188 Z M 239.726562 57.015625"/><path fill="#FFF" d="M 249.730469 67.011719 L 248.378906 70.089844 L 250.144531 72.949219 L 246.800781 72.613281 L 244.625 75.179688 L 243.910156 71.894531 L 240.796875 70.621094 L 243.699219 68.925781 L 243.953125 65.574219 L 246.464844 67.8125 Z M 249.730469 67.011719"/><path fill="#FFF" d="M 257.847656 78.59375 L 255.976562 81.390625 L 257.222656 84.515625 L 253.988281 83.605469 L 251.398438 85.753906 L 251.265625 82.390625 L 248.421875 80.597656 L 251.574219 79.433594 L 252.40625 76.175781 L 254.488281 78.8125 Z M 257.847656 78.59375"/><path fill="#FFF" d="M 263.824219 91.410156 L 261.5 93.839844 L 262.183594 97.132812 L 259.152344 95.671875 L 256.234375 97.339844 L 256.683594 94.007812 L 254.195312 91.746094 L 257.503906 91.148438 L 258.886719 88.082031 L 260.480469 91.042969 Z M 263.824219 91.410156"/><path fill="#FFF" d="M 267.488281 105.066406 L 264.773438 107.058594 L 264.878906 110.417969 L 262.144531 108.453125 L 258.980469 109.589844 L 260.003906 106.386719 L 257.945312 103.726562 L 261.308594 103.714844 L 263.203125 100.933594 L 264.257812 104.125 Z M 267.488281 105.066406"/><path fill="#FFF" d="M 268.722656 119.152344 L 265.703125 120.640625 L 265.21875 123.96875 L 262.871094 121.5625 L 259.554688 122.128906 L 261.121094 119.152344 L 259.554688 116.179688 L 262.871094 116.746094 L 265.21875 114.339844 L 265.703125 117.664062 Z M 268.722656 119.152344"/><path fill="#FFF" d="M 267.488281 133.238281 L 264.257812 134.183594 L 263.203125 137.375 L 261.308594 134.597656 L 257.945312 134.582031 L 260.003906 131.921875 L 258.980469 128.71875 L 262.144531 129.855469 L 264.878906 127.890625 L 264.773438 131.253906 Z M 267.488281 133.238281"/><path fill="#FFF" d="M 263.824219 146.898438 L 260.480469 147.265625 L 258.886719 150.226562 L 257.503906 147.160156 L 254.195312 146.5625 L 256.683594 144.300781 L 256.234375 140.96875 L 259.152344 142.636719 L 262.183594 141.179688 L 261.5 144.46875 Z M 263.824219 146.898438"/><path fill="#FFF" d="M 257.847656 159.714844 L 254.488281 159.496094 L 252.40625 162.136719 L 251.574219 158.875 L 248.421875 157.710938 L 251.265625 155.914062 L 251.398438 152.558594 L 253.988281 154.707031 L 257.222656 153.792969 L 255.976562 156.917969 Z M 257.847656 159.714844"/><path fill="#FFF" d="M 249.730469 171.296875 L 246.464844 170.5 L 243.953125 172.738281 L 243.699219 169.382812 L 240.796875 167.6875 L 243.910156 166.414062 L 244.625 163.128906 L 246.800781 165.695312 L 250.144531 165.359375 L 248.378906 168.21875 Z M 249.730469 171.296875"/><path fill="#FFF" d="M 239.726562 181.296875 L 236.648438 179.941406 L 233.785156 181.710938 L 234.121094 178.363281 L 231.554688 176.191406 L 234.839844 175.476562 L 236.117188 172.367188 L 237.8125 175.269531 L 241.167969 175.519531 L 238.929688 178.027344 Z M 239.726562 181.296875"/><path fill="#FFF" d="M 228.136719 189.40625 L 225.339844 187.539062 L 222.214844 188.785156 L 223.128906 185.546875 L 220.976562 182.960938 L 224.335938 182.828125 L 226.132812 179.984375 L 227.300781 183.140625 L 230.558594 183.96875 L 227.917969 186.050781 Z M 228.136719 189.40625"/><path fill="#FFF" d="M 215.316406 195.382812 L 212.882812 193.058594 L 209.589844 193.742188 L 211.050781 190.710938 L 209.382812 187.792969 L 212.714844 188.246094 L 214.976562 185.757812 L 215.578125 189.066406 L 218.644531 190.445312 L 215.679688 192.039062 Z M 215.316406 195.382812"/><path fill="#FFF" d="M 201.648438 199.039062 L 199.660156 196.332031 L 196.296875 196.433594 L 198.257812 193.703125 L 197.125 190.539062 L 200.328125 191.5625 L 202.988281 189.503906 L 203.007812 192.867188 L 205.785156 194.757812 L 202.589844 195.8125 Z M 201.648438 199.039062"/><path fill="#FFF" d="M 187.554688 200.273438 L 186.066406 197.257812 L 182.738281 196.773438 L 185.144531 194.429688 L 184.574219 191.113281 L 187.554688 192.679688 L 190.53125 191.113281 L 189.960938 194.429688 L 192.371094 196.773438 L 189.042969 197.257812 Z M 187.554688 200.273438"/><path fill="#FFF" d="M 173.460938 199.039062 L 172.515625 195.8125 L 169.324219 194.757812 L 172.101562 192.867188 L 172.117188 189.503906 L 174.78125 191.5625 L 177.984375 190.539062 L 176.847656 193.703125 L 178.8125 196.433594 L 175.449219 196.332031 Z M 173.460938 199.039062"/><path fill="#FFF" d="M 159.792969 195.382812 L 159.425781 192.039062 L 156.460938 190.445312 L 159.53125 189.066406 L 160.128906 185.757812 L 162.394531 188.246094 L 165.726562 187.792969 L 164.058594 190.710938 L 165.519531 193.742188 L 162.222656 193.058594 Z M 159.792969 195.382812"/><path fill="#FFF" d="M 146.972656 189.40625 L 147.191406 186.050781 L 144.550781 183.96875 L 147.808594 183.140625 L 148.972656 179.984375 L 150.769531 182.828125 L 154.132812 182.960938 L 151.980469 185.546875 L 152.894531 188.785156 L 149.769531 187.539062 Z M 146.972656 189.40625"/><path fill="#FFF" d="M 135.382812 181.296875 L 136.179688 178.027344 L 133.941406 175.519531 L 137.296875 175.269531 L 138.992188 172.367188 L 140.265625 175.476562 L 143.550781 176.191406 L 140.988281 178.363281 L 141.320312 181.710938 L 138.460938 179.941406 Z M 135.382812 181.296875"/><path fill="#FFF" d="M 125.378906 171.296875 L 126.730469 168.21875 L 124.960938 165.359375 L 128.308594 165.695312 L 130.484375 163.128906 L 131.199219 166.414062 L 134.308594 167.6875 L 131.40625 169.382812 L 131.15625 172.738281 L 128.644531 170.5 Z M 125.378906 171.296875"/><path fill="#FFF" d="M 117.261719 159.714844 L 119.128906 156.917969 L 117.882812 153.792969 L 121.125 154.707031 L 123.710938 152.558594 L 123.839844 155.914062 L 126.6875 157.710938 L 123.53125 158.875 L 122.703125 162.136719 L 120.617188 159.496094 Z M 117.261719 159.714844"/><path fill="#FFF" d="M 111.28125 146.898438 L 113.605469 144.46875 L 112.925781 141.179688 L 115.953125 142.636719 L 118.875 140.96875 L 118.425781 144.300781 L 120.914062 146.5625 L 117.601562 147.160156 L 116.21875 150.226562 L 114.628906 147.265625 Z M 111.28125 146.898438"/><path fill="#FFF" d="M 107.621094 133.238281 L 110.332031 131.253906 L 110.230469 127.890625 L 112.960938 129.855469 L 116.128906 128.71875 L 115.101562 131.921875 L 117.164062 134.582031 L 113.800781 134.597656 L 111.90625 137.375 L 110.847656 134.183594 Z M 107.621094 133.238281"/><path fill="#FFF" d="M 106.386719 119.152344 L 109.40625 117.664062 L 109.886719 114.339844 L 112.234375 116.746094 L 115.550781 116.179688 L 113.988281 119.152344 L 115.550781 122.128906 L 112.234375 121.5625 L 109.886719 123.96875 L 109.40625 120.640625 Z M 106.386719 119.152344"/><path fill="#FFF" d="M 107.621094 105.066406 L 110.847656 104.125 L 111.90625 100.933594 L 113.800781 103.714844 L 117.164062 103.726562 L 115.101562 106.386719 L 116.128906 109.589844 L 112.960938 108.453125 L 110.230469 110.417969 L 110.332031 107.058594 Z M 107.621094 105.066406"/><path fill="#FFF" d="M 111.28125 91.410156 L 114.628906 91.042969 L 116.21875 88.082031 L 117.601562 91.148438 L 120.914062 91.746094 L 118.425781 94.007812 L 118.875 97.339844 L 115.953125 95.671875 L 112.925781 97.132812 L 113.605469 93.839844 Z M 111.28125 91.410156"/><path fill="#FFF" d="M 117.261719 78.59375 L 120.617188 78.8125 L 122.703125 76.175781 L 123.53125 79.433594 L 126.6875 80.597656 L 123.839844 82.390625 L 123.710938 85.753906 L 121.125 83.605469 L 117.882812 84.515625 L 119.128906 81.390625 Z M 117.261719 78.59375"/><path fill="#FFF" d="M 125.378906 67.011719 L 128.644531 67.8125 L 131.15625 65.574219 L 131.40625 68.925781 L 134.308594 70.621094 L 131.199219 71.894531 L 130.484375 75.179688 L 128.308594 72.613281 L 124.960938 72.949219 L 126.730469 70.089844 Z M 125.378906 67.011719"/><path fill="#FFF" d="M 135.382812 57.015625 L 138.460938 58.367188 L 141.320312 56.597656 L 140.988281 59.945312 L 143.550781 62.117188 L 140.265625 62.832031 L 138.992188 65.945312 L 137.296875 63.039062 L 133.941406 62.789062 L 136.179688 60.28125 Z M 135.382812 57.015625"/><path fill="#FFF" d="M 146.972656 48.90625 L 149.769531 50.769531 L 152.894531 49.527344 L 151.980469 52.761719 L 154.132812 55.347656 L 150.769531 55.480469 L 148.972656 58.324219 L 147.808594 55.167969 L 144.550781 54.34375 L 147.191406 52.257812 Z M 146.972656 48.90625"/><path fill="#FFF" d="M 159.792969 42.929688 L 162.222656 45.253906 L 165.519531 44.570312 L 164.058594 47.597656 L 165.726562 50.515625 L 162.394531 50.066406 L 160.128906 52.550781 L 159.53125 49.246094 L 156.460938 47.863281 L 159.425781 46.269531 Z M 159.792969 42.929688"/><path fill="#FFF" d="M 173.460938 39.265625 L 175.449219 41.980469 L 178.8125 41.878906 L 176.847656 44.605469 L 177.984375 47.769531 L 174.78125 46.75 L 172.117188 48.804688 L 172.101562 45.441406 L 169.324219 43.550781 L 172.515625 42.496094 Z M 173.460938 39.265625"/><path d="M 253.964844 238.523438 C 245.363281 243.484375 231.910156 237.085938 222.316406 239.65625 C 212.804688 242.203125 204.367188 254.488281 194.34375 254.488281 C 193.988281 254.488281 193.628906 254.46875 193.277344 254.441406 L 225.597656 374.992188 L 253.03125 340.707031 L 293.945312 356.691406 L 260.335938 231.324219 C 258.671875 234.355469 256.695312 236.949219 253.960938 238.527344 Z M 253.964844 238.523438"/><path d="M 123.960938 238.523438 C 132.5625 243.484375 146.011719 237.085938 155.605469 239.65625 C 165.121094 242.203125 173.558594 254.488281 183.578125 254.488281 C 183.9375 254.488281 184.292969 254.46875 184.648438 254.441406 L 152.328125 374.992188 L 124.890625 340.707031 L 83.980469 356.691406 L 117.589844 231.324219 C 119.25 234.355469 121.230469 236.949219 123.960938 238.527344 Z M 123.960938 238.523438"/><g fill="#FFF"><g><g><path d="M 82.078125 -40.796875 L 82.078125 -23.203125 L 69.4375 -23.203125 L 69.4375 0 L 46.078125 0 L 46.078125 -23.203125 L 1.59375 -23.203125 L 1.59375 -23.359375 L 69.28125 -107.359375 L 69.4375 -107.359375 L 69.4375 -40.796875 Z M 46.078125 -40.796875 L 46.078125 -54.875 L 35.515625 -40.796875 Z M 46.078125 -40.796875" transform="translate(143.259 173)"/></g></g></g></svg>